<svg width="132" height="78" viewBox="0 0 132 78" fill="none" xmlns="http://www.w3.org/2000/svg">
<g id="Vector">
<path d="M2.97157 0C4.22204 1.82086 5.56895 3.9294 6.81942 5.75026L4.23197 7.57774C2.9815 5.75687 1.34691 3.74479 0 1.63624L2.97157 0ZM11.1462 11.02C12.6843 12.7444 14.2225 14.4688 15.7606 16.1932L13.5573 18.2119C12.0191 16.4875 10.481 14.7631 8.84639 12.751L11.1462 11.02ZM20.375 21.3665C21.9132 23.0909 23.739 24.7189 25.4684 26.0592L23.3615 28.3655C21.5357 26.7376 19.9975 25.0132 18.1717 23.3852L20.375 21.3665ZM30.9459 30.9431C32.6752 32.2834 34.5011 33.9114 36.5181 35.1552L34.7954 37.6528C33.066 36.3125 30.9525 34.781 29.1267 33.153L30.9459 30.9431ZM41.9939 39.0796C44.011 40.3235 46.0281 41.5673 47.7574 42.9076L46.1311 45.6929C44.1141 44.4491 42.097 43.2052 40.0799 41.9614L41.9939 39.0796ZM53.9998 46.2551C56.0169 47.4989 58.2252 48.3586 60.1458 49.3148L58.8072 52.0037C56.5989 51.144 54.5818 49.9001 52.5648 48.6562L53.9998 46.2551ZM66.5795 52.2781C68.7878 53.1379 70.996 53.9976 73.2043 54.8573L72.2498 57.7374C70.0415 56.8777 67.8332 56.0179 65.6249 55.1582L66.5795 52.2781ZM79.4451 57.2453C81.9411 58.0085 84.0529 58.5806 86.1648 59.1526L85.2102 62.0327C82.8107 61.5571 80.6024 60.6974 78.4906 60.1254L79.4451 57.2453ZM93.0757 60.6759C95.4752 61.1515 97.587 61.7236 99.8901 61.9115L99.3197 64.9828C96.9202 64.5072 94.6171 64.3193 92.5053 63.7472L93.0757 60.6759ZM106.705 63.1471C109.008 63.335 111.311 63.5229 113.614 63.7108L113.619 66.5893C111.316 66.4014 109.013 66.2134 106.422 66.1219L106.705 63.1471ZM120.714 63.8905C123.017 64.0784 125.224 63.9787 127.718 63.7825L127.82 66.9486C125.325 67.1448 123.022 66.9569 120.816 67.0566L120.714 63.8905Z" fill="#333333"/>
<path d="M117.337 52.8623L115.23 55.1687L126.569 65.1277L115.746 75.7967L117.764 78L131.079 65.2159L117.337 52.8623Z" fill="#333333"/>
</g>
</svg>
