<svg width="1512" height="925" fill="none" xmlns="http://www.w3.org/2000/svg">
  <mask id="a" style="mask-type:alpha" maskUnits="userSpaceOnUse" x="0" y="0" width="1512" height="925">
    <path fill="#5E5E5E" d="M0 0h1512v925H0z" />
  </mask>
  <g mask="url(#a)" fill="#5E5E5E" fill-opacity=".1">
    <path
      d="M1512 682.362v-6.215c-35.08 7.479-67.73 28.284-89.38 62.678-13.22-1.844-26.65-1.949-40.77.21-55.09-87.906-182.61-88.117-237.91-.21-13.22-1.844-26.65-1.949-40.77.21-55.14-87.906-182.655-88.064-237.959-.21-13.22-1.844-26.651-1.949-40.766.21-55.146-87.906-182.66-88.064-237.964-.21-13.22-1.844-26.651-1.949-40.766.21-55.041-87.906-182.555-88.117-237.858-.21-13.221-1.844-26.651-1.949-40.767.21-55.093-87.906-182.607-88.117-237.91-.21-9.534-1.317-19.225-1.739-29.18-1.054v6.11a133.1 133.1 0 0 1 25.756.685c66.206 7.953 111.134 70.314 98.282 72.526-27.757 4.846-7.848 9.428-32.445-16.643C66.68 774.061 32.813 762.526 0 765.37v6.057c32.655-2.897 66.522 9.112 90.33 36.711 15.168 17.54 10.902 14.537 1.369 18.751-16.539 7.268-4.74 7.058-22.912-10.481-19.172-18.54-44.506-26.23-68.787-23.491v6.215c25.229-3.002 51.617 6.004 69.788 27.125 10.218 11.903 7.479 5.583-11.06 20.91-13.38-21.279-36.923-30.022-58.728-26.44v6.162c15.485-2.897 32.076 1.264 44.612 12.799 14.852 13.694 8.848 9.27-6.32 28.336C32.286 850.538 14.536 844.27 0 848.905v6.636c6.057-2.686 13.43-3.16 20.91.791 7.005 3.686 15.643 13.22 9.744 22.174-3.002 4.529 2.002.895-21.12.895-3.898 0-6.953.105-9.534.263v6.215c84.325-6.162 137.048 71 124.038 73.264-24.65 4.267-11.64 8.322-26.809-10.323C72.421 918.272 35.658 904.419 0 907.421v6.163c33.077-2.897 67.365 9.428 91.067 37.396 14.115 16.696 10.323 13.641.632 17.907-20.015 8.796-1.317 4.425-31.813-17.907C41.926 937.759 20.54 932.756 0 935.073v6.057c25.124-3.055 51.511 5.899 69.788 27.178 10.218 11.904 7.479 5.583-11.06 20.91C45.401 967.939 21.804 959.196 0 962.778v6.162c15.485-2.897 32.076 1.264 44.612 12.799 14.852 13.694 8.848 9.27-6.32 28.341C32.286 992.536 14.536 986.321 0 990.956v6.637c6.057-2.687 13.43-3.161 20.91.79 7.005 3.687 15.643 13.217 9.744 22.177-2.95 4.53 1.79.89-21.12.89-3.898 0-6.953.11-9.534.27v6.26c46.824-3.26 95.175 17.65 123.459 62.79 7.268 11.58 6.215 9.37.579 10.37-24.65 4.27-11.64 8.32-26.809-10.32-24.86-30.6-61.624-44.4-97.229-41.4v6.22c4.582-.43 9.27-.58 14.116-.37 55.777 2.42 92.488 49.72 83.271 53.3-28.547 11.11-4.53 10.59-34.71-13.49-18.54-14.74-41.135-20.43-62.677-17.96v6.11c2.739-.36 5.583-.58 8.427-.63 39.45-.47 73.159 32.82 63.942 38.77-27.283 17.54-1.422 7-36.448-11.01-11.324-5.79-23.912-7.64-35.921-5.58v6.16c30.233-5.16 59.517 18.91 49.826 28.39-4.161 4.05-7.953 8.27-11.535 12.8-6.004-17.6-23.754-23.7-38.291-19.07v6.43c18.382-7.96 38.87 10.64 30.654 23.17-3.002 4.53 1.896.9-21.12.9-3.898 0-6.953.1-9.534.26v6.32c46.824-3.27 95.122 17.54 123.459 62.78 7.268 11.59 6.215 9.38.579 10.38-24.65 4.26-11.64 8.32-26.809-10.32-25.018-30.82-61.73-44.46-97.229-41.46v6.22c4.582-.42 9.27-.58 14.116-.37 55.883 2.37 92.488 49.72 83.271 53.3-28.547 11.12-4.53 10.59-34.71-13.48-18.434-14.75-41.082-20.44-62.677-18.01v6.11c2.739-.37 5.583-.58 8.427-.64 40.82-.58 72.738 33.08 63.942 38.77-27.336 17.54-1.422 7-36.448-11.01A57.478 57.478 0 0 0 0 1246.83v6.16c30.233-5.16 59.517 18.91 49.826 28.39-4.214 4.11-8.006 8.37-11.535 12.8-6.004-17.54-23.754-23.7-38.291-19.07v6.32c3.792-1.63 8.322-2.32 13.642-1.42 11.64 2 23.701 14.54 17.012 24.7-3.318 5.01-7.005-.74-30.654 1.16v6.27c47.245-3.32 96.018 17.85 124.301 64.1 6.584 10.85 5.794 7.58-6.215 10.22-15.59 3.42-7.532 5.74-19.224-9.33C74.054 1345 36.395 1330.63 0 1333.68v6.06c33.182-2.9 67.523 9.58 91.067 37.39 14.115 16.65 10.323 13.64.632 17.91-16.539 7.27-4.74 7.06-22.912-10.48-19.014-18.33-44.4-26.18-68.787-23.39v6.27c22.385-3.63 47.93 1.58 69.788 27.02 10.165 11.85 7.532 5.53-11.06 20.91-12.8-20.43-36.185-30.28-58.675-26.49v6.16c20.067-3.69 42.03 4.37 54.04 24.39-35.026 31.65-1.37-.42-42.084-3.69-4.477-.37-8.533.32-11.956 1.42v6.27c3.792-1.63 8.322-2.32 13.641-1.42 11.64 2 23.702 14.54 17.013 24.7-3.477 5.27-5.9-.89-30.654 1.16v6.32c47.297-3.32 96.07 17.96 124.301 64.1 6.584 10.85 5.794 7.58-6.215 10.22-15.59 3.42-7.532 5.74-19.225-9.33-24.807-31.91-62.414-46.5-98.914-43.45v6.11c33.182-2.9 67.523 9.53 91.067 37.4 14.115 16.64 10.323 13.64.632 17.91-16.539 7.26-4.74 7.05-22.912-10.49-19.066-18.38-44.453-26.17-68.787-23.38v6.21c22.332-3.63 47.93 1.58 69.788 27.08 10.218 11.9 7.479 5.58-11.06 20.91-12.8-20.44-36.238-30.29-58.728-26.5v6.17c20.067-3.69 42.03 4.37 54.04 24.38-35.026 31.66-1.212-.42-42.084-3.69-4.53-.36-8.532.32-11.956 1.43v6.26c3.792-1.63 8.322-2.31 13.642-1.42 11.64 2 23.701 14.54 17.012 24.7-3.476 5.27-5.9-.89-30.654 1.16v7.22c55.936-4.32 114.399 23.7 136.784 90.06 27.705 81.96-28.073 116.04-7.426 116.04 10.27-16.75 17.012-35.77 19.488-56.15 2.475 20.38 9.27 39.4 19.488 56.15 23.332 0-37.08-30.82-7.058-117.09 49.457-142.42 261.243-106.76 261.243 43.98 0 60.47-32.655 73.16-14.484 73.16 10.271-16.75 17.013-35.76 19.488-56.15 2.476 20.39 9.27 39.4 19.488 56.15 21.173 0-14.484-7.53-14.484-73.16 0-151.37 213.524-185.13 261.612-42.93 27.704 81.96-28.073 116.04-7.426 116.04 10.27-16.75 17.012-35.77 19.487-56.15 2.476 20.38 9.27 39.4 19.488 56.15 23.333 0-37.079-30.82-7.057-117.09 49.773-143.21 261.243-105.87 261.243 43.98 0 60.47-32.655 73.16-14.484 73.16 10.271-16.75 17.012-35.76 19.488-56.15 2.475 20.39 9.27 39.4 19.492 56.15 21.17 0-14.489-7.53-14.489-73.16 0-151.48 213.319-185.87 261.609-42.93 27.71 81.96-28.07 116.04-7.42 116.04 10.27-16.75 17.01-35.77 19.49-56.15 2.47 20.38 9.27 39.4 19.48 56.15 23.28 0-37.08-30.92-7.05-117.09 39.08-112.5 178.23-113.4 235.9-35.87v-8.74c-1.58-1.84-3.58-4.11-6.16-6.95-3.37-3.58-.1-8.06 6.16-11.96v-6.79c-2.58 1.52-5.1 3.21-7.42 5.21-9.9 8.22-1 8.32-20.6-5.53-3.74-2.63 8.27-15.64 28.02-23.33v-6.64a86.146 86.146 0 0 0-20.8 11.22c-23.39 17.12-4.95 16.59-31.81 4.79-4.53-2 17.22-27.91 52.61-38.39v-6.43c-21.64 5.79-41.82 18.12-57.41 36.92-4.47 5.38-1.79 5.06-7.69 3.11-17.75-5.85-24.01.05-5.32-20.75 19.6-21.81 44.35-35.5 70.37-41.3v-6.26c-.16.05-.31.05-.47.1-15.59 3.43-7.53 5.74-19.23-9.32-44.4-57.52-130.93-58.78-176.97-2.16-14.64 18.12-4.05 15.54-22.44 11.54-11.11-2.43-11.11.52-5.16-9.33 50.25-83.69 168.81-87.01 224.27-9.53v-10.22c-2.05-2.53-5-5.85-9.27-10.16 2.85-3.22 5.95-5.96 9.27-8.27v-7.27c-2.58 1.53-5.05 3.21-7.42 5.21-9.91 8.22-1.01 8.32-20.6-5.53-3.74-2.63 8.27-15.64 28.02-23.33v-6.64a86.146 86.146 0 0 0-20.8 11.22c-23.39 17.12-4.95 16.59-31.82 4.79-4.53-2 17.23-27.91 52.62-38.39v-6.37c-21.65 5.84-41.87 18.17-57.41 36.86-4.48 5.38-1.79 5.06-7.69 3.11-17.8-5.84-24.02.05-5.32-20.75 19.6-21.81 44.35-35.5 70.37-41.29v-6.27c-.16.05-.32.05-.47.1-15.6 3.43-7.54 5.74-19.23-9.32-44.51-57.46-130.94-58.88-176.97-2.16-14.64 18.12-4.06 15.54-22.44 11.54-11.11-2.43-11.11.52-5.16-9.33 50.35-83.95 168.91-86.8 224.27-9.53v-10.16c-1.58-1.85-3.58-4.11-6.16-6.96-3.37-3.58-.11-8.06 6.16-11.95v-6.8c-2.58 1.53-5.06 3.22-7.43 5.22-9.9 8.21-1 8.32-20.59-5.53-3.74-2.64 8.27-15.65 28.02-23.34v-6.63a85.52 85.52 0 0 0-20.81 11.22c-23.38 17.11-4.95 16.59-31.81 4.79-4.53-2 17.23-27.92 52.62-38.4v-6.37c-21.65 5.85-41.87 18.17-57.41 36.87-4.48 5.37-1.79 5.05-7.69 3.11-17.75-5.85-24.02.05-5.32-20.76 19.59-21.8 44.35-35.5 70.37-41.29v-6.27c-.16.06-.32.06-.48.11-15.59 3.42-7.53 5.74-19.22-9.32-44.51-57.63-130.99-58.73-176.97-2.16-14.65 18.11-4.11 15.53-22.44 11.53-11.06-2.42-11.11.53-5.16-9.32 50.35-83.85 168.86-86.91 224.27-9.54v-10.16c-1.58-1.84-3.58-4.11-6.17-6.95-3.31-3.58-.1-8.06 6.17-11.96V1190c-2.58 1.52-5.06 3.21-7.43 5.21-9.9 8.22-1 8.32-20.59-5.53-3.74-2.63 8.27-15.64 28.02-23.33v-6.64a86.021 86.021 0 0 0-20.81 11.22c-23.28 17.07-4.95 16.59-31.81 4.79-4.79-2.1 17.33-27.91 52.62-38.34v-6.32c-23.34 6.32-44.93 20.12-60.84 41.34-24.12-8.84-24.96-2.31-17.85-12 20.33-27.6 48.56-44.77 78.69-51.52v-6.21c-17.12 3.74-7.48 5.69-21.33-11.43-45.56-56.09-130.94-55.88-176.24 1.16-14.64 18.49-1.89 13.64-27.55 9.22-8.74-1.53 26.97-57.41 87.65-70.53 67.89-14.69 119.03 26.55 137.47 52.09v-9.37c-1.58-1.85-3.58-4.11-6.17-6.96-3.37-3.58-.1-8.05 6.17-11.95v-6.8c-2.58 1.53-5.06 3.22-7.43 5.22-9.9 8.21-1 8.32-20.59-5.53-3.74-2.64 8.27-15.59 28.02-23.28v-6.59c-8.64 3.16-16.91 7.75-24.28 13.75-18.81 15.27-1.95 13.17-30.71 1.16 14.69-19.07 34.13-31.5 54.99-37.45v-6.267c-23.28 6.268-44.88 20.067-60.84 41.397-24.12-8.85-24.96-2.32-17.85-12.01 20.28-27.544 48.51-44.767 78.69-51.561v-6.215c-17.12 3.739-7.48 5.688-21.33-11.43-45.56-56.093-130.94-55.883-176.24 1.159-14.64 18.487-1.89 13.641-27.55 9.217-8.37-1.475 26.55-57.305 87.65-70.525 68.15-14.748 119.08 26.493 137.47 52.038v-9.323a312.536 312.536 0 0 0-6.17-6.952c-3.42-3.687 0-8.059 6.17-11.903v-6.848c-23.07 13.642-2.79 16.644-30.39-2.054 8.63-10.007 19.12-17.223 30.39-21.752v-6.479c-8.64 3.16-16.91 7.743-24.28 13.747-18.75 15.222-2.06 13.168-30.71 1.159 14.69-19.067 34.13-31.497 54.99-37.449v-6.267c-23.28 6.267-44.88 20.067-60.84 41.398-24.12-8.848-24.96-2.317-17.85-12.009 20.28-27.546 48.51-44.769 78.69-51.564v-6.215c-19.75 4.319-4.11 6.426-26.97-17.749-45.51-48.194-121.19-46.982-165.38 1.369-23.13 25.334-3.53 20.383-32.77 15.274-9.42-1.632 41.56-83.587 132.31-72.579 43.88 5.32 78.16 34.288 92.75 53.987v-8.954c-2.95-3.634-6-7.163-9.27-10.481 2.85-3.213 5.96-5.9 9.27-8.27v-7.69a58.757 58.757 0 0 0-13.69 11.272c-5.21-4.846-10.8-9.323-16.75-13.326 8.64-10.007 19.12-17.223 30.39-21.752v-6.531c-13.27 4.898-25.6 13.22-35.6 24.965a143.212 143.212 0 0 0-19.39-9.955c14.7-19.013 34.08-31.496 54.99-37.501v-6.32c-23.23 6.268-44.82 20.12-60.83 41.504-7.06-2.581-14.43-4.582-21.97-6.004 20.81-31.181 50.88-50.353 83.17-57.569Zm-371.48 62.151c66.15 8.006 111.18 70.367 98.28 72.579-27.81 4.846-7.85 9.428-32.44-16.643-45.67-48.404-121.36-46.772-165.34 1.369-23.75 26.019-3.31 20.383-32.76 15.274-9.477-1.632 41.56-83.587 132.26-72.579Zm43.08 782.147c-30.13-29.07-76.42-31.86-109.66-7.48-32.34 23.71-10.79 27.87-33.39 17.91-8.16-3.58-12.11-.63 1.47-17.06 42.67-51.51 121.2-51.41 163.86-.85 14.12 16.65 10.32 13.65.63 17.91-16.59 7.32-4.74 7.11-22.91-10.43Zm-10.11 30.82c-16.33-26.13-50.25-35.14-77.27-20.07-35.08 19.54-7.06 28.91-36.29 10.11-12.22-7.85 68.42-76.58 124.67-10.95 10.17 11.9 7.43 5.53-11.11 20.91Zm40.13-38.3c-44.77-57.83-131.25-58.51-176.97-2.15-14.69 18.06-4 15.53-22.43 11.53-11.12-2.42-11.12.53-5.17-9.32 51.94-86.59 177.19-87.38 230.01-.9 6.64 10.8 5.8 7.59-6.21 10.22-15.64 3.37-7.59 5.74-19.23-9.38Zm-308.748 7.48c-29.969-28.91-76.214-31.97-109.659-7.48-32.34 23.71-10.797 27.87-33.393 17.91-8.164-3.58-12.114-.68 1.475-17.06 42.505-51.41 120.983-51.51 163.856-.85 14.116 16.65 10.324 13.65.632 17.91-16.538 7.32-4.74 7.06-22.911-10.43Zm-10.113 30.82c-16.38-26.18-50.3-35.08-77.267-20.07-35.131 19.54-7.058 28.91-36.289 10.11-12.273-7.9 68.418-76.58 124.67-10.95 10.165 11.9 7.479 5.53-11.114 20.91Zm40.135-38.3c-44.506-57.51-130.991-58.83-176.972-2.15-14.695 18.06-4.055 15.53-22.437 11.53-11.113-2.42-11.113.53-5.162-9.32 51.933-86.59 177.182-87.38 230.011-.9 6.583 10.85 5.793 7.59-6.216 10.22-15.59 3.37-7.531 5.74-19.224-9.38Zm-308.699 7.48c-30.338-29.23-76.635-31.7-109.66-7.48-32.339 23.71-10.797 27.87-33.392 17.91-8.164-3.58-12.114-.68 1.474-17.06 42.61-51.51 121.142-51.41 163.857-.85 14.116 16.65 10.323 13.65.632 17.91-16.538 7.32-4.74 7.11-22.911-10.43Zm-10.113 30.82c-16.381-26.18-50.3-35.08-77.267-20.07-35.131 19.54-7.005 28.91-36.29 10.11-12.219-7.85 68.419-76.58 124.67-10.95 10.166 11.9 7.427 5.53-11.113 20.91Zm40.135-38.3c-44.559-57.62-131.044-58.72-176.972-2.15-14.695 18.06-4.003 15.53-22.437 11.53-11.114-2.42-11.114.53-5.162-9.32 51.933-86.59 177.182-87.38 230.01-.9 6.584 10.85 5.794 7.59-6.215 10.22-15.59 3.37-7.532 5.74-19.224-9.38Zm-308.7 7.48c-30.074-29.02-76.424-31.86-109.659-7.48-32.339 23.71-10.797 27.87-33.393 17.91-8.164-3.58-12.114-.68 1.475-17.06 42.505-51.41 121.036-51.46 163.857-.85 14.115 16.65 10.323 13.65.632 17.91-16.539 7.32-4.793 7.06-22.912-10.43Zm-10.112 30.82c-16.434-26.23-50.353-35.08-77.267-20.07-35.131 19.54-7.058 28.91-36.29 10.11-12.167-7.85 68.418-76.53 124.67-10.95 10.165 11.9 7.426 5.53-11.113 20.91Zm40.134-38.3c-44.559-57.62-131.043-58.72-176.971-2.15-14.695 18.06-4.056 15.53-22.438 11.53-11.113-2.42-11.113.53-5.161-9.32 51.722-86.38 177.024-87.59 230.01-.9 6.584 10.85 5.793 7.59-6.215 10.22-15.643 3.37-7.585 5.74-19.225-9.38Zm109.817-756.97c-5.899 4.056-11.429 8.585-16.643 13.431-22.859-26.598-63.679-27.178-87.169-.79-5.215-4.846-10.798-9.323-16.75-13.326 32.129-37.079 89.066-36.553 120.562.685Zm-125.723-4.056a143.067 143.067 0 0 0-19.383-9.954c43.032-55.672 126.461-55.725 169.387.527-6.689 2.844-13.062 6.267-19.172 10.059-33.919-40.819-96.228-41.346-130.832-.632Zm104.761 21.753a148.086 148.086 0 0 0-14.063 16.855c-11.746-18.014-37.712-18.698-50.3-1.106a141.147 141.147 0 0 0-14.063-16.592c21.015-23.754 57.884-23.385 78.426.843Zm-17.908 22.543c-2.739 4.266-5.215 8.691-7.479 13.273-37.291-3.792-20.278 8.269-35.237-14.59 9.85-16.854 33.972-16.011 42.716 1.317Zm87.906 75.476c5.214 7.321 4.635 1.633-18.856 10.534-45.191-60.992-135.783-61.097-181.132-.474-24.123-8.848-24.966-2.317-17.855-12.009 54.355-73.79 164.646-73.106 217.843 1.949ZM766.034 762.21c-5.899 4.056-11.43 8.585-16.644 13.431-22.859-26.598-63.626-27.178-87.169-.79-5.214-4.846-10.797-9.323-16.749-13.326 32.181-37.079 89.118-36.553 120.562.685Zm-125.724-4.056a143.055 143.055 0 0 0-19.382-9.954c43.031-55.672 126.46-55.725 169.387.527-6.69 2.844-13.063 6.267-19.172 10.059-33.867-40.819-96.229-41.346-130.833-.632Zm104.761 21.753a148.086 148.086 0 0 0-14.063 16.855c-11.745-18.014-37.712-18.698-50.3-1.106a141.051 141.051 0 0 0-14.063-16.592c21.016-23.754 57.885-23.385 78.426.843Zm-17.855 22.543c-2.739 4.266-5.215 8.691-7.479 13.273-37.291-3.792-20.226 8.269-35.237-14.59 9.85-16.854 33.973-16.011 42.716 1.317Zm87.853 75.476c5.162 7.269 4.688 1.633-18.855 10.534-45.191-61.044-135.837-61.044-181.133-.474-24.123-8.848-24.965-2.317-17.855-12.009 54.25-73.632 164.541-73.264 217.843 1.949ZM1044.76 762.21c-5.9 4.056-11.43 8.585-16.64 13.431-22.86-26.598-63.626-27.178-87.169-.79-5.214-4.846-10.797-9.323-16.749-13.326 32.129-37.079 89.068-36.553 120.558.685Zm-125.72-4.056a143.055 143.055 0 0 0-19.382-9.954c43.031-55.672 126.462-55.725 169.382.527-6.68 2.844-13.06 6.267-19.17 10.059-33.92-40.819-96.278-41.346-130.83-.632Zm104.71 21.753a147.333 147.333 0 0 0-14.06 16.855c-11.75-18.014-37.716-18.698-50.305-1.106a141.043 141.043 0 0 0-14.062-16.592c21.015-23.754 57.937-23.385 78.427.843Zm-17.86 22.543c-2.74 4.266-5.21 8.691-7.476 13.273-37.29-3.792-20.278 8.269-35.236-14.59 9.849-16.854 33.972-16.011 42.712 1.317Zm87.91 75.476c5.21 7.321 4.63 1.633-18.86 10.534-45.29-61.202-135.938-60.886-181.129-.474-24.123-8.848-24.965-2.317-17.855-12.009 54.356-73.843 164.644-73.053 217.844 1.949Zm-70.32 603.234c-21.59-20.02-54.193-20.49-76.314-2.11-9.902 8.22-1.001 8.32-20.594-5.53-7.058-5 41.609-46.46 92.908-20.81 7.06 3.53 27.97 17.91 23.86 20.81-19.49 13.75-12.22 14.69-19.86 7.64Zm.27 9c-26.231 26.92-2.58 16.23-27.601 5.43-7.321-3.16-14.8-3.27-22.227-.63-26.756 9.53-1.948 21.28-28.652-5.69 21.226-23.86 58.25-23.02 78.48.89Zm-89.962-35.44c-23.386 17.11-4.951 16.59-31.813 4.79-5.688-2.53 29.969-42.72 82.165-42.72 53.88 0 86.7 41.46 83.8 42.72-21.17 9.32-16.22 11.64-20.28 7.11-29.07-32.34-78.056-38.19-113.872-11.9Zm-36.606-3.06c-4.477 5.37-1.738 5.06-7.637 3.11-17.75-5.85-24.018.05-5.32-20.75 59.043-65.74 164.065-57.68 212.475 16.43-23.86 4.79-20.18 8.32-23.23 4.32-44.82-57.83-130.518-58.25-176.288-3.11Zm-49.141-35.87c-5.056-.42-9.586.42-13.168 1.85-33.287 12.64-.421 34.02-34.288 2.79 19.699-34.5 69.103-35.03 89.539-.95-35.078 31.65-1.369-.47-42.083-3.69Zm18.698 30.97c-3.898 5.95-6.479-2.74-41.715 2.43-8.532 1.26-1.106-31.55 24.702-27.13 11.641 1.95 23.702 14.49 17.013 24.7Zm-121.931 34.4c-21.384-19.81-53.987-20.7-76.319-2.11-9.902 8.22-1.001 8.32-20.594-5.53-7.005-4.95 41.662-46.4 92.91-20.81 7.005 3.48 27.915 17.91 23.859 20.81-19.54 13.75-12.219 14.69-19.856 7.64Zm.263 9c-26.23 26.92-2.581 16.23-27.599 5.43-7.427-3.21-14.906-3.21-22.227-.63-26.756 9.53-1.949 21.28-28.652-5.69 21.278-23.91 58.305-22.97 78.478.89Zm-89.961-35.44c-23.385 17.11-4.951 16.59-31.812 4.79-5.689-2.53 29.969-42.72 82.165-42.72 53.934 0 86.695 41.46 83.798 42.72-21.331 9.37-16.17 11.64-20.278 7.11-28.968-32.23-77.952-38.24-113.873-11.9Zm-36.605-3.06c-4.477 5.37-1.738 5.06-7.637 3.11-17.434-5.74-23.965 0-5.32-20.75 58.938-65.58 164.015-57.78 212.471 16.43-23.86 4.79-20.173 8.32-23.228 4.32-45.085-58.15-130.832-57.94-176.286-3.11Zm-49.194-35.87c-5.056-.42-9.586.42-13.168 1.85-33.234 12.64-.474 33.97-34.288 2.79 19.699-34.45 69.103-35.08 89.539-.95-35.025 31.65-1.316-.42-42.083-3.69Zm18.75 30.97c-3.897 5.9-6.425-2.79-41.714 2.43-8.533 1.26-1.106-31.55 24.702-27.13 11.64 1.95 23.702 14.49 17.012 24.7Zm-121.931 34.4c-21.384-19.81-53.987-20.7-76.319-2.11-9.902 8.22-1 8.32-20.594-5.53-7.058-5 41.61-46.46 92.91-20.81 7.005 3.48 27.968 17.91 23.86 20.81-19.541 13.75-12.272 14.69-19.857 7.64Zm.264 9c-26.23 26.97-2.581 16.23-27.6 5.43-7.426-3.21-14.905-3.21-22.226-.63-26.757 9.53-1.949 21.28-28.653-5.69 21.226-23.91 58.253-22.97 78.479.89Zm-89.961-35.44c-23.385 17.11-4.951 16.59-31.813 4.79-5.688-2.53 29.97-42.72 82.166-42.72 53.776 0 86.8 41.4 83.798 42.72-21.279 9.37-16.17 11.64-20.278 7.11-29.074-32.34-78.057-38.13-113.873-11.9Zm-36.606-3.06c-4.477 5.37-1.738 5.06-7.637 3.11-17.434-5.74-23.965 0-5.319-20.75 59.043-65.74 164.067-57.68 212.471 16.43-23.86 4.79-20.12 8.32-23.228 4.32-44.822-57.78-130.569-58.31-176.287-3.11Zm189.929-609.971c19.698-20.225 51.564-21.068 72.263-2.001 14.853 13.694 8.849 9.27-6.32 28.336-9.692-28.178-49.721-27.178-57.99 1.422-15.748-20.278-20.489-14.905-7.953-27.757Zm-12.536 6.426c-18.803-15.854-20.33-9.533-12.588-19.277 31.075-39.398 90.066-40.398 122.563-2.528 10.218 11.903 7.479 5.583-11.06 20.91-23.017-36.764-76.583-36.343-98.915.895Zm61.045 8.217c7.005 3.686 15.643 13.22 9.744 22.174-2.95 4.529 1.791.895-21.121.895-24.439 0-19.488 4.003-22.701-.895-6.426-9.797 13.062-33.341 34.078-22.174Zm103.128 102.811c-24.65 4.267-11.64 8.322-26.809-10.323-45.507-56.093-131.149-55.83-176.234 1.159-14.643 18.487-1.896 13.641-27.547 9.217-8.69-1.527 26.967-57.41 87.643-70.525 95.333-20.699 156.904 68.05 142.947 70.472Zm127.04-117.454c19.488-20.014 51.353-21.226 72.263-2.001 14.853 13.694 8.849 9.27-6.32 28.336-9.639-28.178-49.721-27.23-57.99 1.422-15.748-20.278-20.488-14.905-7.953-27.757Zm-12.535 6.426c-18.804-15.854-20.331-9.533-12.589-19.277 31.076-39.398 90.119-40.398 122.564-2.528 10.218 11.903 7.479 5.583-11.061 20.91-23.07-36.869-76.635-36.237-98.914.895Zm61.097 8.217c7.005 3.686 15.643 13.22 9.744 22.174-3.002 4.529 2.001.895-21.121.895-24.544 0-19.488 4.003-22.701-.895-6.636-10.06 13.326-33.183 34.078-22.174Zm103.128 102.811c-24.65 4.267-11.64 8.322-26.809-10.323-45.402-55.883-130.938-56.041-176.234 1.159-14.643 18.487-1.896 13.641-27.547 9.217-8.743-1.527 26.967-57.41 87.643-70.525 95.228-20.699 156.904 68.05 142.947 70.472Zm-55.251 425.467c-30.285-29.23-76.582-31.7-109.659-7.48-32.34 23.7-10.797 27.87-33.393 17.91-8.164-3.58-12.114-.68 1.475-17.06 42.399-51.3 120.878-51.62 163.856-.85 14.116 16.65 10.324 13.64.632 17.91-16.538 7.32-4.74 7.06-22.911-10.43Zm-10.113 30.81c-16.38-26.17-50.3-35.07-77.267-20.06-36.869 20.54-6.215 29.44-36.289 10.11-12.273-7.9 68.418-76.53 124.67-10.96 10.112 11.8 7.532 5.53-11.114 20.91Zm40.135-38.29c-44.822-57.93-131.307-58.36-176.972-2.16-14.695 18.07-4.002 15.54-22.437 11.54-11.113-2.42-11.113.53-5.162-9.32 51.722-86.22 176.919-87.75 230.011-.9 6.583 10.85 5.793 7.59-6.216 10.22-15.59 3.37-7.531 5.74-19.224-9.38Zm-308.699 7.48c-30.496-29.44-76.846-31.55-109.66-7.48-32.339 23.7-10.797 27.87-33.392 17.91-8.164-3.58-12.114-.68 1.474-17.06 42.294-51.15 120.826-51.73 163.857-.85 14.116 16.65 10.323 13.64.632 17.91-16.538 7.32-4.74 7.11-22.911-10.43Zm-10.113 30.81c-16.381-26.17-50.3-35.07-77.267-20.06-36.026 20.06-6.584 29.18-36.29 10.11-12.219-7.85 68.471-76.53 124.67-10.96 10.166 11.91 7.427 5.53-11.113 20.91Zm40.135-38.29c-44.559-57.62-131.044-58.72-176.972-2.16-14.695 18.07-4.003 15.54-22.437 11.54-11.114-2.42-11.114.53-5.162-9.32 52.038-86.86 177.34-87.12 230.01-.9 6.584 10.85 5.794 7.59-6.215 10.22-15.59 3.37-7.532 5.69-19.224-9.38Zm49.246-473.606c20.91 0 42.294 15.485 37.29 20.857-19.54 21.016-5.109 15.538-20.962 5.373-6.215-4.003-14.59-5.899-22.859-4.109-31.075 6.795-5.372 24.387-29.232-1.264-7.848-8.48 20.489-20.857 35.763-20.857Zm-59.939.053c32.024-36.975 89.171-36.395 120.51.684-26.651 18.382-7.954 15.959-29.654 2.212-17.855-11.324-40.872-12.219-59.991-1.106-23.859 13.853-3.055 17.013-30.865-1.79Zm76.372 33.919c8.217 7.479 4.372 7.005-2.212 20.278-37.554-3.792-20.173 8.427-35.236-14.59 8.216-14.01 26.335-15.906 37.448-5.688Zm93.173 82.484c5.162 7.27 4.688 1.63-18.855 10.53-45.297-61.149-135.889-60.938-181.133-.47-24.123-8.85-24.965-2.32-17.855-12.01 54.25-73.634 164.541-73.265 217.843 1.95Zm-70.261 319.13c-21.384-19.81-53.987-20.7-76.319-2.11-9.902 8.22-1.001 8.32-20.594-5.53-7.005-4.95 41.662-46.4 92.91-20.81 7.005 3.48 27.915 17.91 23.859 20.81-19.54 13.75-12.219 14.69-19.856 7.64Zm.263 9c-26.23 26.92-2.581 16.22-27.599 5.43-7.427-3.22-14.906-3.22-22.227-.63-26.756 9.53-1.949 21.27-28.652-5.69 21.278-23.92 58.305-22.97 78.478.89Zm-89.961-35.44c-23.385 17.11-4.951 16.59-31.812 4.79-5.636-2.48 29.969-42.72 82.165-42.72 53.829 0 86.748 41.4 83.798 42.72-21.173 9.32-16.222 11.64-20.278 7.11-29.074-32.34-78.057-38.13-113.873-11.9Zm-36.605-3.06c-4.477 5.37-1.738 5.06-7.637 3.11-17.592-5.8-23.965 0-5.32-20.75 58.727-65.37 163.857-57.99 212.471 16.43-24.439 4.9-20.067 8.43-23.228 4.32-44.822-57.83-130.569-58.26-176.286-3.11Zm86.958-68.47c-18.224 0-8.796 4.79-21.015-13.85 9.954-16.96 34.077-15.8 42.715 1.31-11.113 17.49-1.896 12.54-21.7 12.54Zm12.009-29.65c-7.427-3.22-14.906-3.22-22.227-.64-26.756 9.54-1.949 21.28-28.652-5.68 21.226-24.02 58.253-23.02 78.425.84-26.229 27.02-2.528 16.27-27.546 5.48Zm27.336-14.44c-21.332-19.75-53.935-20.7-76.319-2.1-9.902 8.21-1.001 8.32-20.594-5.53-7.058-5.01 41.609-46.46 92.91-20.81 7.005 3.48 27.915 17.91 23.859 20.81-19.54 13.74-12.219 14.69-19.856 7.63Zm16.327-22.28c-31.654-27.23-77.793-27.33-109.448-1.58-18.751 15.23-2.002 13.22-30.707 1.16 43.242-55.93 126.83-55.19 169.387.53-27.23 11.69-12.904 13.96-29.232-.11Zm-146.054-2.68c-24.123-8.85-24.965-2.32-17.855-12.01 54.092-73.47 164.383-73.37 217.843 2 5.162 7.27 4.688 1.63-18.855 10.54-45.086-61-135.679-61.21-181.133-.53Zm69.367-86.85c8.216-14.01 26.282-15.91 37.448-5.69 8.217 7.48 4.372 7-2.212 20.28-37.501-3.8-20.12 8.42-35.236-14.59Zm37.395-13.44c-6.215-4-14.589-5.89-22.858-4.1-31.076 6.79-5.373 24.38-29.232-1.27-7.848-8.48 20.488-20.85 35.71-20.85 19.33 0 42.821 14.9 37.29 20.85-19.487 21.02-5.056 15.54-20.91 5.37Zm14.537-23.28c-17.855-11.32-40.872-12.21-59.991-1.1-23.859 13.9-3.107 17.06-30.865-1.74 32.024-36.97 89.171-36.39 120.51.69-26.599 18.32-7.901 15.9-29.654 2.15Zm24.755-15.8c-31.654-27.23-77.793-27.33-109.448-1.58-18.751 15.23-2.002 13.22-30.707 1.16 43.242-55.986 126.882-55.196 169.387.53-27.23 11.69-12.904 13.96-29.232-.11Zm-112.029-63.833c-20.015 8.796-1.317 4.425-31.813-17.907-34.973-25.651-82.218-20.542-111.292 9.059-19.066 19.435-1.369 16.433-30.97 5.583 38.028-64.152 126.567-69.999 173.443-14.59 14.116 16.644 10.323 13.589.632 17.855Zm-144.527 2.002c31.023-39.397 89.908-40.556 122.564-2.528 10.218 11.903 7.479 5.583-11.061 20.91-23.017-36.764-76.53-36.343-98.862.895-18.803-15.854-20.33-9.533-12.641-19.277Zm25.177 12.851c19.698-20.225 51.564-21.068 72.263-2.001 14.853 13.694 8.849 9.27-6.32 28.341-9.692-28.183-49.721-27.182-57.99 1.42-15.748-20.28-20.489-14.855-7.953-27.76Zm48.509 14.643c7.005 3.687 15.643 13.217 9.744 22.177-3.002 4.53 1.896.89-21.121.89-24.439 0-19.488 4.01-22.701-.89-6.426-9.75 13.062-33.343 34.078-22.177Zm103.128 102.807c-24.65 4.27-11.64 8.33-26.809-10.32-45.507-56.09-131.149-55.83-176.234 1.16-14.643 18.49-1.896 13.64-27.547 9.22-8.638-1.48 27.02-57.41 87.643-70.53 95.333-20.7 156.904 68.05 142.947 70.47Zm-32.919-8.16c14.116 16.7 10.323 13.64.632 17.91-20.015 8.79-1.317 4.42-31.813-17.91-34.973-25.65-82.218-20.54-111.292 9.06-19.066 19.44-1.369 16.43-30.97 5.58 38.028-64.15 126.567-70 173.443-14.64Zm-143.895 19.91c31.023-39.4 89.908-40.56 122.564-2.53 10.218 11.91 7.479 5.59-11.061 20.91-22.964-36.66-76.477-36.39-98.862.9-18.803-15.86-20.33-9.54-12.641-19.28Zm25.177 12.85c19.698-20.22 51.564-21.07 72.263-2 14.906 13.69 8.796 9.38-6.32 28.34-9.692-28.18-49.721-27.18-57.99 1.42-15.748-20.28-20.489-14.85-7.953-27.76Zm41.293 12.12c11.693 2 23.702 14.53 17.012 24.7-3.897 5.9-6.531-2.74-41.714 2.42-8.585 1.32-1.106-31.5 24.702-27.12Zm110.607 96.28c6.584 10.85 5.847 7.58-6.215 10.21-15.59 3.43-7.532 5.75-19.224-9.32-45.086-58.25-131.518-58.09-176.972-2.16-14.695 18.07-4.056 15.54-22.437 11.54-11.114-2.43-11.114.52-5.162-9.33 52.143-86.85 177.34-87.16 230.01-.94Zm-197.039 1.73c42.294-51.19 120.72-51.72 163.857-.84 14.116 16.7 10.323 13.64.632 17.91-16.538 7.27-4.74 7.06-22.911-10.48-30.022-28.97-76.267-31.92-109.66-7.48-32.444 23.81-10.744 27.86-33.392 17.91-8.164-3.53-12.114-.63 1.474-17.02Zm142.526 16.49c10.218 11.9 7.479 5.58-11.061 20.91-16.381-26.18-50.3-35.08-77.267-20.07-35.394 19.7-6.9 29.02-36.29 10.12-12.377-7.9 68.471-76.43 124.618-10.96Zm-15.749 25.02c-35.078 31.65-1.369-.42-42.083-3.69-5.056-.42-9.586.42-13.168 1.85-33.287 12.64-.421 34.02-34.288 2.79 19.699-34.5 69.103-35.08 89.539-.95Zm-40.345 2.58c11.64 2 23.702 14.54 17.012 24.7-3.897 5.9-6.425-2.79-41.714 2.42-8.585 1.27-1.106-31.54 24.702-27.12Zm113.399 89.33c9.954-16.96 34.077-15.8 42.715 1.31-11.166 17.44-1.896 12.54-21.753 12.54-18.171 0-8.69 4.85-20.962-13.85Zm165.278-89.33c11.693 2 23.702 14.54 17.013 24.7-3.792 5.74-8.006-2.53-41.715 2.42-8.532 1.27-1.053-31.54 24.702-27.12Zm-1.685-6.32c-5.056-.42-9.586.42-13.168 1.84-33.287 12.64-.421 34.03-34.288 2.79 19.699-34.49 69.103-35.02 89.539-.94-35.078 31.7-1.369-.43-42.083-3.69Zm-30.549-20.38c-36.869 20.54-6.215 29.44-36.289 10.11-12.378-7.95 68.523-76.48 124.67-10.96 10.218 11.91 7.479 5.59-11.061 20.91-16.433-26.23-50.353-35.07-77.32-20.06Zm87.38-10.75c-29.969-28.91-76.266-31.97-109.659-7.48-32.445 23.81-10.745 27.86-33.393 17.91-8.164-3.58-12.114-.68 1.475-17.07 42.241-51.09 120.667-51.82 163.856-.84 14.116 16.65 10.324 13.64.632 17.91-16.538 7.32-4.74 7.06-22.911-10.43Zm30.022-7.48c-44.928-58.09-131.412-58.25-176.972-2.16-14.695 18.07-4.055 15.54-22.437 11.54-11.113-2.43-11.061.52-5.162-9.33 52.038-86.69 177.235-87.22 230.011-.89 6.583 10.85 5.846 7.58-6.216 10.22-15.59 3.37-7.531 5.69-19.224-9.38Zm-68.155-72.42c-3.74 5.74-8.006-2.53-41.715 2.42-8.585 1.27-1.106-31.55 24.702-27.12 11.641 1.95 23.702 14.48 17.013 24.7Zm-50.353-9.11c-15.748-20.28-20.488-14.91-7.953-27.76 19.541-20.07 51.406-21.17 72.263-2 14.853 13.69 8.849 9.32-6.32 28.34-9.639-28.18-49.721-27.23-57.99 1.42Zm-20.488-21.33c-18.856-15.91-20.331-9.48-12.589-19.28 30.918-39.19 89.75-40.77 122.564-2.53 10.218 11.91 7.479 5.59-11.061 20.91-23.017-36.76-76.53-36.34-98.914.9Zm100.073-39.19c-35.079-25.7-82.271-20.49-111.292 9.06-19.119 19.44-1.37 16.43-30.97 5.58 38.028-64.1 126.566-70 173.442-14.64 14.116 16.7 10.324 13.64.632 17.91-20.014 8.85-1.316 4.42-31.812-17.91Zm37.343-2.16c-45.402-55.88-130.938-56.04-176.234 1.16-14.643 18.49-1.896 13.64-27.547 9.22-8.743-1.53 26.967-57.41 87.643-70.53 94.806-20.54 157.01 68.1 142.947 70.53-24.702 4.26-11.64 8.32-26.809-10.38Zm-66.575-70.26c-2.95 4.53 1.791.89-21.121.89-24.544 0-19.488 4.01-22.701-.89-6.425-9.8 13.01-33.341 34.078-22.175 6.952 3.685 15.643 13.165 9.744 22.175Zm-50.353-9.11c-15.748-20.28-20.488-14.908-7.953-27.76 19.488-20.014 51.353-21.226 72.263-2.001 14.853 13.694 8.849 9.27-6.32 28.341-9.639-28.183-49.721-27.235-57.99 1.42Zm-20.488-21.334c-18.804-15.854-20.331-9.533-12.589-19.277 30.918-39.187 89.75-40.767 122.564-2.528 10.218 11.903 7.479 5.583-11.061 20.91-23.017-36.764-76.53-36.343-98.914.895Zm100.073-39.186c-35.079-25.703-82.271-20.489-111.292 9.059-19.119 19.435-1.37 16.433-30.97 5.583 38.08-64.152 126.566-69.946 173.442-14.59 14.116 16.697 10.324 13.642.632 17.908-20.014 8.796-1.316 4.372-31.812-17.96Zm-134.836-60.308c-31.97-27.546-78.162-27.072-109.448-1.58-18.751 15.222-2.002 13.22-30.707 1.159 43.242-55.936 126.882-55.198 169.387.527-27.23 11.692-12.904 13.957-29.232-.106Zm-278.677 0c-31.971-27.546-78.162-27.072-109.448-1.58-18.751 15.222-2.055 13.168-30.707 1.159 43.137-55.883 126.829-55.304 169.387.527-27.231 11.692-12.957 13.957-29.232-.106Zm4.898 13.589c-26.651 18.382-7.953 15.959-29.653 2.212-17.855-11.324-40.872-12.219-59.991-1.106-23.86 13.905-3.108 17.065-30.865-1.738 32.182-37.238 89.329-36.237 120.509.632Zm-60.57-.737c19.33 0 42.82 14.906 37.29 20.857-19.488 20.963-5.109 15.485-20.963 5.373-6.215-4.003-14.589-5.899-22.858-4.109-31.076 6.795-5.373 24.387-29.232-1.264-7.848-8.48 20.488-20.857 35.763-20.857Zm16.433 33.972c8.164 7.479 4.371 7.005-2.212 20.278-37.554-3.792-20.173 8.427-35.237-14.59 8.164-13.904 26.177-16.011 37.449-5.688Zm93.173 82.484c5.214 7.32 4.635 1.63-18.856 10.53-45.243-61.149-135.889-60.885-181.132-.47-24.123-8.85-24.966-2.32-17.855-12.01 54.355-73.792 164.646-73.107 217.843 1.95Zm-24.702 12.85c-27.178 11.69-12.957 13.96-29.232-.11-31.971-27.54-78.162-27.07-109.448-1.58-18.751 15.23-2.055 13.17-30.707 1.16 43.137-55.828 126.777-55.249 169.387.53Zm-24.334 13.48c-26.651 18.38-7.953 15.96-29.653 2.21-17.855-11.32-40.872-12.21-59.991-1.1-23.86 13.9-3.108 17.06-30.865-1.74 32.182-37.24 89.329-36.24 120.509.63Zm-60.57-.73c21.015 0 42.241 15.53 37.29 20.85-19.488 20.97-5.109 15.49-20.963 5.37-6.215-4-14.589-5.89-22.858-4.1-31.076 6.79-5.373 24.38-29.232-1.27-7.848-8.48 20.488-20.85 35.763-20.85Zm16.433 33.97c8.164 7.48 4.371 7-2.212 20.28-37.554-3.8-20.173 8.42-35.237-14.59 8.217-14.01 26.283-15.91 37.449-5.69Zm93.173 82.48c5.162 7.27 4.688 1.63-18.856 10.53-45.085-60.94-135.678-61.2-181.132-.47-24.123-8.85-24.966-2.32-17.855-12.01 54.355-73.79 164.646-73.11 217.843 1.95Zm-24.702 12.85c-27.178 11.69-13.01 13.91-29.232-.11-31.971-27.54-78.162-27.07-109.448-1.58-18.804 15.28-1.949 13.22-30.707 1.16 43.084-55.77 126.724-55.3 169.387.53Zm-49.615-6.32c7.005 3.48 27.915 17.91 23.859 20.8-19.488 13.8-12.219 14.75-19.856 7.69-21.332-19.75-53.935-20.7-76.319-2.1-9.902 8.21-1.001 8.32-20.594-5.53-7.006-5.06 41.662-46.51 92.91-20.86Zm4.319 37.5c-26.23 26.97-2.581 16.17-27.6 5.43-7.426-3.22-14.905-3.22-22.226-.64-26.757 9.54-1.949 21.28-28.653-5.68 21.279-23.92 58.253-22.97 78.479.89Zm-17.908 22.54c-11.166 17.49-1.949 12.54-21.753 12.54-18.224 0-8.796 4.79-21.015-13.85 10.06-17.02 34.183-15.7 42.768 1.31Zm90.803 79.75c-23.86 4.79-20.173 8.32-23.228 4.32-44.769-57.78-130.516-58.26-176.286-3.11-4.477 5.37-1.738 5.05-7.637 3.11-17.592-5.8-23.965 0-5.32-20.76 59.043-65.73 164.12-57.67 212.471 16.44Zm-112.503-33.61c54.197 0 86.589 41.51 83.798 42.72-21.174 9.32-16.223 11.64-20.278 7.11-29.021-32.29-78.005-38.24-113.873-11.9-23.28 17.06-4.951 16.59-31.813 4.79-5.741-2.53 29.917-42.72 82.166-42.72Zm35.289 35.87c7.005 3.48 27.915 17.91 23.859 20.81-19.488 13.8-12.219 14.74-19.856 7.69-21.385-19.81-53.987-20.7-76.319-2.11-9.902 8.22-1.001 8.32-20.594-5.53-7.006-5.06 41.662-46.51 92.91-20.86Zm4.319 37.5c-26.23 26.92-2.581 16.17-27.6 5.43-7.426-3.22-14.905-3.22-22.226-.63-26.757 9.53-1.896 21.33-28.653-5.69 21.332-24.02 58.306-22.91 78.479.89Zm-17.908 22.54c-11.166 17.49-1.949 12.54-21.753 12.54-18.224 0-8.796 4.79-21.015-13.85 10.06-17.07 34.235-15.64 42.768 1.31Zm535.654 12.54c-18.223 0-8.795 4.79-21.015-13.85 9.955-17.01 34.13-15.75 42.715 1.31-11.113 17.49-1.84 12.54-21.7 12.54Zm12.062-29.65c-7.321-3.16-14.8-3.27-22.227-.63-26.756 9.53-1.896 21.33-28.652-5.69 21.226-23.97 58.197-23.07 78.427.84-26.231 27.02-2.58 16.27-27.548 5.48Zm27.278-14.43c-21.59-20.02-54.193-20.49-76.314-2.11-9.902 8.22-1.001 8.32-20.594-5.53-7.058-5.01 41.609-46.4 92.908-20.81 7.01 3.48 27.92 17.91 23.86 20.81-19.75 13.96-12.17 14.69-19.86 7.64Zm-89.692-26.44c-23.28 17.06-4.951 16.59-31.813 4.79-5.688-2.48 29.917-42.72 82.165-42.72 53.78 0 86.8 41.4 83.8 42.72-21.17 9.32-16.22 11.64-20.28 7.11-29.13-32.39-78.109-38.08-113.872-11.9Zm-36.606-3.06c-4.477 5.37-1.738 5.06-7.637 3.11-17.381-5.74-23.965 0-5.32-20.75 59.201-65.84 164.175-57.52 212.475 16.43-24.44 4.9-20.07 8.43-23.23 4.32-45.03-58.1-130.728-57.99-176.288-3.11Zm86.958-68.47c-18.223 0-8.795 4.79-21.015-13.85 9.955-16.96 34.078-15.8 42.715 1.31-11.113 17.44-1.84 12.54-21.7 12.54Zm12.062-29.65c-7.427-3.22-14.906-3.22-22.227-.64-26.756 9.59-1.896 21.34-28.652-5.68 21.278-24.02 58.257-22.97 78.427.84-26.231 27.02-2.58 16.27-27.548 5.48Zm27.278-14.44c-21.38-19.8-53.982-20.64-76.314-2.1-9.902 8.21-1.001 8.32-20.594-5.53-7.163-5.06 41.662-46.41 92.908-20.81 7.01 3.48 27.92 17.91 23.86 20.81-19.49 13.74-12.22 14.69-19.86 7.63Zm16.33-22.28c-31.97-27.54-78.16-27.07-109.446-1.58-18.75 15.23-2.054 13.17-30.706 1.16 43.136-55.83 126.772-55.3 169.382.53-27.17 11.75-12.95 13.91-29.23-.11Zm-146.051-2.68c-24.123-8.85-24.966-2.32-17.856-12.01 54.251-73.63 164.487-73.26 217.847 2 5.16 7.27 4.68 1.63-18.86 10.54-45.3-61.31-135.993-60.84-181.131-.53Zm69.419-86.85c8.164-13.91 26.177-16.02 37.452-5.69 8.21 7.53 4.37 7.06-2.216 20.28-37.554-3.8-20.173 8.42-35.236-14.59Zm37.342-13.44c-6.214-4-14.589-5.89-22.858-4.1-31.075 6.79-5.372 24.38-29.232-1.27-7.848-8.48 20.489-20.85 35.71-20.85 21.02 0 42.24 15.53 37.29 20.85-19.49 21.02-5.06 15.54-20.91 5.37Zm14.54-23.28c-17.91-11.32-40.927-12.21-59.993-1.1-23.86 13.9-3.161 17.01-30.865-1.74 32.234-37.24 89.378-36.13 120.508.69-26.6 18.32-7.9 15.9-29.65 2.15Zm24.75-15.8c-31.97-27.54-78.16-27.07-109.446-1.58-18.75 15.28-2.001 13.22-30.706 1.16 43.189-55.881 126.832-55.301 169.382.53-27.17 11.69-12.9 13.96-29.23-.11Zm-146.051-2.68c-24.123-8.85-24.966-2.32-17.856-12.01 54.356-73.792 164.597-73.107 217.847 2 5.16 7.27 4.68 1.63-18.86 10.53-45.24-61.198-135.888-60.988-181.131-.52Zm69.419-86.856c8.164-13.904 26.229-15.959 37.452-5.688 8.21 7.532 4.37 7.058-2.216 20.278-37.554-3.792-20.173 8.427-35.236-14.59Zm37.342-13.43c-6.214-4.003-14.589-5.899-22.858-4.109-31.075 6.795-5.372 24.387-29.232-1.264-7.9-8.48 20.489-20.857 35.71-20.857 19.33 0 42.82 14.906 37.29 20.857-19.49 21.016-5.06 15.485-20.91 5.373Zm14.54-23.281c-17.857-11.324-40.874-12.219-59.993-1.106-23.913 13.905-3.161 17.013-30.865-1.738 32.234-37.238 89.378-36.131 120.508.685-26.6 18.329-7.9 15.906-29.65 2.159Zm24.75-15.801c-31.92-27.493-78.107-27.125-109.446-1.58-18.75 15.222-2.001 13.22-30.706 1.159 43.189-55.883 126.832-55.304 169.382.527-27.17 11.692-12.9 13.957-29.23-.106Zm-112.027-63.836c-16.538 7.269-4.74 7.058-22.911-10.481-34.341-33.13-87.748-31.444-120.193 1.58-19.119 19.435-1.37 16.433-30.97 5.583 37.501-63.257 125.039-70.578 172.705-15.432 15.169 17.592 10.903 14.589 1.369 18.75Zm-278.677 0c-16.538 7.269-4.74 7.058-22.911-10.481-34.183-32.972-87.643-31.549-120.194 1.58-19.119 19.435-1.369 16.433-30.97 5.583 37.607-63.415 125.145-70.473 172.706-15.432 15.169 17.592 10.902 14.589 1.369 18.75Zm-278.677 0c-16.539 7.269-4.741 7.058-22.912-10.481-34.341-33.13-87.748-31.444-120.193 1.58-19.119 19.435-1.369 16.433-30.97 5.583 37.501-63.204 124.986-70.631 172.705-15.432 15.117 17.592 10.85 14.589 1.37 18.75Zm-144.527 1.949c31.075-39.397 90.118-40.398 122.563-2.528 10.218 11.903 7.479 5.583-11.06 20.91-23.07-36.869-76.583-36.237-98.862.895-18.803-15.801-20.331-9.48-12.641-19.277Zm25.176 12.904c19.488-20.014 51.354-21.226 72.264-2.001 14.853 13.694 8.848 9.27-6.321 28.336-9.691-28.231-49.72-27.178-57.99 1.422-15.801-20.278-20.488-14.905-7.953-27.757Zm48.509 14.643c7.006 3.686 15.643 13.22 9.744 22.174-3.002 4.529 2.002.895-21.12.895-24.545 0-19.488 4.003-22.701-.895-6.637-10.06 13.325-33.183 34.077-22.174Zm103.128 102.811c-24.649 4.267-11.64 8.322-26.809-10.323-45.401-55.935-130.937-56.041-176.234 1.159-14.642 18.487-1.896 13.641-27.546 9.217-8.691-1.527 26.862-57.41 87.643-70.525 94.911-20.647 157.009 68.05 142.946 70.472Zm-32.918-8.163c14.115 16.643 10.323 13.641.632 17.907-20.015 8.796-1.317 4.425-31.813-17.907-35.131-25.756-82.376-20.436-111.292 9.059-19.119 19.435-1.369 16.433-30.97 5.583 38.028-64.152 126.461-70.051 173.443-14.642Zm-143.895 19.909c30.917-39.187 89.75-40.767 122.563-2.528 10.218 11.903 7.479 5.583-11.06 20.91-22.965-36.711-76.477-36.395-98.862.895-18.803-15.854-20.331-9.533-12.641-19.277Zm25.176 12.851c19.488-20.014 51.354-21.226 72.264-2.001 14.853 13.694 8.848 9.27-6.321 28.341-9.691-28.341-49.773-27.13-57.99 1.42-15.801-20.28-20.488-14.855-7.953-27.76Zm48.509 14.643c7.006 3.687 15.643 13.217 9.744 22.177-2.949 4.53 1.791.89-21.12.89-24.439 0-19.488 4.01-22.701-.89-6.426-9.75 13.009-33.343 34.077-22.177Zm103.128 102.807c-24.649 4.27-11.64 8.33-26.809-10.32-45.401-55.93-130.937-56.04-176.234 1.16-14.642 18.49-1.896 13.64-27.546 9.22-8.427-1.48 26.598-57.31 87.643-70.53 95.175-20.7 156.904 68.05 142.946 70.47Zm-32.918-8.16c14.115 16.64 10.323 13.64.632 17.91-20.015 8.79-1.317 4.42-31.813-17.91-35.131-25.75-82.323-20.44-111.292 9.06-19.119 19.44-1.369 16.43-30.97 5.58 38.028-64.15 126.461-70 173.443-14.64Zm-143.895 19.91c30.917-39.19 89.75-40.77 122.563-2.53 10.218 11.91 7.479 5.59-11.06 20.91-22.965-36.71-76.477-36.39-98.862.9-18.856-15.91-20.331-9.48-12.641-19.28Zm25.176 12.85c19.541-20.07 51.406-21.17 72.264-2 14.853 13.69 8.848 9.32-6.321 28.34-9.691-28.34-49.773-27.13-57.99 1.42-15.801-20.28-20.488-14.85-7.953-27.76Zm41.241 12.12c11.693 2 23.701 14.53 17.012 24.7-3.739 5.74-8.111-2.53-41.714 2.42-8.533 1.32-1.054-31.5 24.702-27.12Zm110.66 96.28c6.531 10.74 5.846 7.58-6.215 10.21-15.591 3.43-7.532 5.75-19.225-9.32-44.717-57.83-131.201-58.51-176.971-2.16-14.695 18.07-4.056 15.54-22.438 11.54-11.113-2.43-11.113.52-5.161-9.33 52.196-87.06 177.392-87.01 230.01-.94Zm-197.092 1.73c42.031-50.87 120.404-52.03 163.857-.84 14.116 16.65 10.323 13.64.632 17.91-16.538 7.27-4.74 7.06-22.911-10.48-29.917-28.86-76.214-31.97-109.66-7.48-32.444 23.81-10.744 27.86-33.392 17.91-8.112-3.53-12.062-.63 1.474-17.02Zm142.578 16.49c10.218 11.9 7.479 5.58-11.06 20.91-16.434-26.23-50.353-35.08-77.267-20.07-36.87 20.54-6.216 29.45-36.29 10.12-12.43-7.9 68.418-76.43 124.617-10.96Zm-15.748 25.02c-35.026 31.71-1.37-.42-42.084-3.69-5.056-.42-9.585.42-13.167 1.85-33.288 12.64-.421 34.02-34.288 2.79 19.698-34.5 69.103-35.08 89.539-.95Zm-40.398 2.58c11.693 2 23.701 14.54 17.012 24.7-3.792 5.74-8.005-2.53-41.714 2.42-8.533 1.27-1.054-31.54 24.702-27.12Zm110.66 96.23c6.584 10.85 5.793 7.58-6.215 10.22-15.591 3.42-7.532 5.74-19.225-9.33-44.875-57.99-131.359-58.3-176.971-2.16-14.695 18.07-4.003 15.54-22.438 11.54-11.113-2.42-11.113.53-5.161-9.32 52.143-87.07 177.392-87.02 230.01-.95Zm-197.092 1.74c42.4-51.3 120.931-51.62 163.857-.85 14.116 16.65 10.323 13.64.632 17.91-16.538 7.27-4.74 7.06-22.911-10.48-30.338-29.28-76.635-31.65-109.66-7.48-32.339 23.7-10.797 27.86-33.392 17.91-8.112-3.53-12.062-.58 1.474-17.01Zm142.578 16.48c10.218 11.91 7.479 5.58-11.06 20.91-16.434-26.23-50.353-35.08-77.267-20.07-36.87 20.55-6.216 29.45-36.29 10.12-12.272-7.8 68.418-76.53 124.617-10.96Zm-15.748 25.02c-35.026 31.65-1.37-.42-42.084-3.69-5.056-.42-9.585.42-13.167 1.85-33.288 12.64-.421 34.02-34.288 2.79 19.698-34.5 69.05-35.08 89.539-.95Zm-40.398 2.58c11.693 2 23.701 14.54 17.012 24.7-3.897 5.95-6.478-2.74-41.714 2.43-8.533 1.26-1.054-31.55 24.702-27.13Zm113.451 89.33c10.008-17.07 34.131-15.64 42.716 1.32-11.166 17.48-1.949 12.53-21.753 12.53-18.171 0-8.743 4.79-20.963-13.85Zm278.678 0c9.954-16.96 34.077-15.8 42.715 1.32-11.113 17.38-1.896 12.53-21.753 12.53-18.171 0-8.743 4.79-20.962-13.85Zm278.73 0c10.007-17.07 34.13-15.64 42.712 1.32-11.163 17.43-1.89 12.53-21.75 12.53-18.171 0-8.743 4.79-20.962-13.85Zm165.222-89.33c11.7 2 23.71 14.54 17.02 24.7-3.9 5.9-6.48-2.74-41.72 2.43-8.53 1.26-1.05-31.55 24.7-27.13Zm-1.68-6.27c-5.06-.42-9.59.42-13.17 1.85-33.29 12.69-.42 34.02-34.29 2.79 19.7-34.5 69.11-35.08 89.54-.95-35.02 31.65-1.37-.47-42.08-3.69Zm-30.55-20.43c-35.13 19.59-7.01 28.91-36.29 10.11-12.17-7.85 68.47-76.53 124.67-10.96 10.22 11.91 7.48 5.59-11.06 20.91-16.38-26.17-50.25-35.13-77.32-20.06Zm87.43-10.75c-30.28-29.23-76.63-31.7-109.66-7.48-32.34 23.7-10.79 27.87-33.39 17.91-8.16-3.58-12.11-.63 1.47-17.06 42.93-51.78 121.41-51.15 163.86-.85 14.12 16.65 10.32 13.64.63 17.91-16.59 7.32-4.74 7.11-22.91-10.43Zm30.02-7.48c-44.55-57.62-131.04-58.72-176.97-2.16-14.69 18.07-4 15.54-22.43 11.54-11.12-2.42-11.12.53-5.17-9.32 51.88-86.59 177.19-87.33 230.01-.9 6.64 10.8 5.8 7.59-6.21 10.22-15.64 3.37-7.59 5.69-19.23-9.38Zm-85.22-97.12c11.7 2 23.71 14.54 17.02 24.7-3.9 5.9-6.43-2.79-41.72 2.42-8.53 1.27-1.05-31.54 24.7-27.12Zm-1.68-6.32c-5.06-.42-9.59.42-13.17 1.84-33.29 12.64-.42 34.03-34.29 2.79 19.7-34.44 69.11-35.07 89.54-.94-35.02 31.7-1.37-.43-42.08-3.69Zm-30.55-20.38c-35.13 19.59-7.01 28.91-36.29 10.11-12.38-7.95 68.47-76.48 124.67-10.96 10.22 11.91 7.48 5.59-11.06 20.91-16.38-26.17-50.25-35.13-77.32-20.06Zm87.43-10.75c-30.07-29.02-76.32-31.86-109.66-7.48-32.44 23.81-10.74 27.86-33.39 17.91-8.16-3.58-12.11-.63 1.47-17.07 42.51-51.3 120.72-51.66 163.86-.84 14.12 16.7 10.32 13.64.63 17.91-16.59 7.32-4.74 7.06-22.91-10.43Zm30.02-7.48c-44.82-57.94-131.3-58.41-176.97-2.16-14.69 18.07-4 15.54-22.43 11.54-11.12-2.43-11.12.52-5.17-9.33 52.2-87.01 177.45-86.95 230.01-.89 6.64 10.8 5.8 7.58-6.21 10.22-15.64 3.37-7.59 5.69-19.23-9.38Zm-68.2-72.42c-3.01 4.53 2 .9-21.12.9-24.44 0-19.49 4-22.71-.9-6.42-9.8 13.07-33.34 34.08-22.17 7.01 3.68 15.65 13.16 9.75 22.17Zm-50.3-9.11c-15.75-20.28-20.49-14.91-7.96-27.76 19.49-20.01 51.36-21.22 72.27-2 14.85 13.69 8.85 9.32-6.32 28.34-9.7-28.23-49.78-27.18-57.99 1.42Zm-20.55-21.33c-18.8-15.91-20.33-9.48-12.58-19.28 30.91-39.19 89.75-40.77 122.56-2.53 10.22 11.91 7.48 5.59-11.06 20.91-23.02-36.76-76.53-36.34-98.92.9Zm100.13-39.19c-34.92-25.6-82.16-20.59-111.29 9.06-19.07 19.44-1.37 16.43-30.97 5.58 38.03-64.15 126.46-70 173.44-14.64 14.12 16.64 10.32 13.64.63 17.91-20.12 8.85-1.21 4.53-31.81-17.91Zm37.29-2.16c-45.4-55.93-130.94-56.04-176.23 1.16-14.65 18.49-1.9 13.64-27.55 9.22-8.743-1.53 26.92-57.41 87.64-70.53 95.18-20.64 156.91 68.05 142.95 70.47-24.6 4.27-11.64 8.33-26.81-10.32Zm-66.57-70.26c-3.01 4.53 2 .89-21.12.89-24.44 0-19.49 4.01-22.71-.89-6.42-9.8 13.07-33.341 34.08-22.175 7.01 3.685 15.65 13.165 9.75 22.175Zm-50.3-9.11c-15.75-20.28-20.49-14.908-7.96-27.76 19.49-20.014 51.36-21.226 72.27-2.001 14.85 13.694 8.85 9.27-6.32 28.341-9.7-28.183-49.78-27.235-57.99 1.42Zm-20.55-21.334c-18.8-15.854-20.33-9.533-12.58-19.277 30.91-39.187 89.75-40.767 122.56-2.528 10.22 11.956 7.48 5.583-11.06 20.91-23.02-36.764-76.53-36.343-98.92.895Zm100.13-39.186c-34.92-25.598-82.16-20.594-111.29 9.059-19.07 19.435-1.37 16.433-30.97 5.583 38.03-64.152 126.46-69.999 173.44-14.59 14.12 16.644 10.32 13.642.63 17.908-20.12 8.796-1.21 4.477-31.81-17.96Zm37.29-2.16c-45.4-55.935-130.94-56.041-176.23 1.159-14.65 18.487-1.95 13.641-27.55 9.217-8.532-1.475 26.6-57.305 87.64-70.525 95.34-20.647 156.91 68.155 142.95 70.525-24.65 4.214-11.64 8.269-26.81-10.376Zm-66.57-70.314c-3.01 4.529 2 .895-21.12.895-24.44 0-19.49 4.003-22.71-.895-6.42-9.797 13.07-33.341 34.08-22.174 7.01 3.739 15.65 13.22 9.75 22.174Zm-50.3-9.06c-15.75-20.278-20.49-14.905-7.96-27.757 19.49-20.014 51.36-21.226 72.27-2.001 14.85 13.694 8.85 9.27-6.32 28.336-9.7-28.178-49.78-27.23-57.99 1.422Zm-20.55-21.331c-18.8-15.854-20.33-9.533-12.58-19.277 30.91-39.24 89.96-40.556 122.56-2.528 10.22 11.903 7.48 5.583-11.06 20.91-23.07-36.869-76.58-36.237-98.92.895Zm109.03-31.707c-34.13-32.972-87.59-31.602-120.19 1.58-19.12 19.435-1.37 16.433-30.97 5.583 37.61-63.362 125.09-70.526 172.7-15.433 15.17 17.54 10.91 14.537 1.37 18.751-16.59 7.216-4.74 7.058-22.91-10.481Zm-86.9-76.267a134.355 134.355 0 0 0-21.81 6.268c-45.19-61.045-135.572-61.361-181.131-.474-7.058-2.581-14.432-4.582-21.964-6.004 53.25-81.165 171.755-81.218 224.905.21Zm-234.859 4.372c66.153 8.006 111.133 70.367 98.282 72.579-27.757 4.846-7.848 9.428-32.445-16.643-45.559-48.299-121.299-46.877-165.331 1.369-23.122 25.334-3.529 20.383-32.761 15.274-9.481-1.632 41.557-83.534 132.255-72.579Zm-43.822-4.372a132.755 132.755 0 0 0-21.805 6.268c-45.191-61.045-135.573-61.361-181.133-.474-7.058-2.581-14.431-4.582-21.963-6.004 53.197-81.165 171.704-81.218 224.901.21Zm-234.856 4.372c66.206 8.006 111.134 70.367 98.283 72.579-27.705 4.793-8.112 9.112-32.445-16.643-45.665-48.404-121.352-46.824-165.332 1.369-23.122 25.334-3.687 20.331-32.76 15.274-9.586-1.632 41.609-83.534 132.254-72.579Zm-43.874-4.372a132.755 132.755 0 0 0-21.805 6.268c-45.191-61.045-135.573-61.361-181.133-.474-7.058-2.581-14.431-4.582-21.963-6.004 53.249-81.165 171.757-81.218 224.901.21Zm-234.856 4.372c66.259 8.058 111.081 70.367 98.282 72.579-27.809 4.846-7.795 9.428-32.444-16.643-45.665-48.404-121.352-46.772-165.332 1.369-23.122 25.334-3.529 20.383-32.761 15.274-9.48-1.632 41.505-83.587 132.255-72.579ZM35.71 739.878c53.25-81.112 171.757-81.165 224.902.263a134.252 134.252 0 0 0-21.806 6.268c-45.191-61.045-135.573-61.361-181.132-.474-7.058-2.634-14.38-4.635-21.964-6.057Zm47.245 18.276a143.039 143.039 0 0 0-19.382-9.954c43.031-55.672 126.461-55.725 169.387.527-6.689 2.844-13.062 6.267-19.172 10.059-33.92-40.819-96.281-41.346-130.833-.632Zm21.911 16.697c-5.214-4.846-10.797-9.323-16.749-13.326 32.129-37.079 89.065-36.5 120.509.685-5.899 4.056-11.429 8.585-16.644 13.431-22.806-26.598-63.572-27.125-87.116-.79Zm18.435 20.805a141.147 141.147 0 0 0-14.063-16.592c21.015-23.754 57.937-23.385 78.425.843a148.078 148.078 0 0 0-14.062 16.855c-11.693-18.014-37.66-18.698-50.3-1.106Zm46.507 6.794c-2.739 4.266-5.214 8.691-7.479 13.273-37.29-3.792-20.278 8.269-35.236-14.59 9.849-16.854 33.972-16.011 42.715 1.317ZM39.871 875.925c54.25-73.633 164.489-73.264 217.844 2.001 5.161 7.269 4.687 1.633-18.856 10.534-45.296-61.15-135.889-60.939-181.133-.474-24.123-8.848-24.965-2.37-17.855-12.061Zm23.702 14.379c43.189-55.883 126.829-55.304 169.387.526-27.231 11.693-12.904 13.958-29.232-.105-31.971-27.546-78.163-27.072-109.449-1.58-18.75 15.222-2.001 13.167-30.706 1.159Zm24.544 13.273c32.234-37.238 89.381-36.132 120.509.684-26.651 18.382-7.953 15.959-29.653 2.212-17.697-11.218-40.767-12.324-59.991-1.106-23.86 13.853-3.16 16.96-30.865-1.79Zm24.228 20.804c-7.9-8.48 20.489-20.857 35.711-20.857 20.91 0 42.294 15.485 37.29 20.857-19.541 21.016-5.109 15.538-20.963 5.373-6.215-4.003-14.589-5.899-22.858-4.109-31.023 6.795-5.32 24.387-29.18-1.264Zm49.984 33.393c-37.554-3.792-20.172 8.427-35.236-14.59 8.164-13.904 26.23-15.959 37.448-5.688 8.164 7.479 4.372 7.005-2.212 20.278ZM39.871 1017.98c54.25-73.637 164.489-73.268 217.844 2 5.161 7.27 4.687 1.63-18.856 10.53-45.086-60.832-135.678-61.201-181.133-.47-24.123-8.85-24.965-2.37-17.855-12.06Zm23.702 14.37c43.189-55.878 126.829-55.299 169.387.53-27.231 11.69-12.904 13.96-29.232-.1-31.708-27.29-77.847-27.29-109.449-1.58-18.803 15.22-1.948 13.16-30.706 1.15Zm24.544 13.28c32.234-37.24 89.381-36.13 120.509.68-26.651 18.38-7.953 15.96-29.653 2.21-17.855-11.32-40.872-12.21-59.991-1.1-23.86 13.85-3.16 16.96-30.865-1.79Zm24.228 20.8c-7.848-8.48 20.489-20.85 35.711-20.85 20.91 0 42.294 15.48 37.29 20.85-19.541 21.02-5.109 15.54-20.963 5.37-6.215-4-14.589-5.89-22.858-4.1-31.023 6.79-5.32 24.38-29.18-1.27Zm14.748 18.81c8.164-13.91 26.177-16.02 37.448-5.69 8.217 7.48 4.372 7-2.212 20.28-37.554-3.8-20.172 8.42-35.236-14.59Zm-91.383 80.79c48.562-74 153.428-81.69 212.313-16.17 18.804 20.91 12.641 15.38-3.739 20.75-13.378 4.43-24.755-39.39-88.697-43.66-33.814-2.21-65.68 10.64-88.17 33.6-16.222 16.65-1.263 11.28-31.707 5.48Zm30.18 9.38c-6.636-2.9 32.814-45.46 88.012-42.46 49.036 2.64 81.533 40.88 77.952 42.46-34.341 15.11-2.37 11.9-42.084-10.43-28.284-15.91-64.099-14.85-92.067 5.63-23.333 17.12-4.951 16.59-31.813 4.8Zm24.597 13.95c-2.686-1.89-3.476-1 1.844-6.26 52.986-52.36 122.3 1.05 114.926 6.26-19.488 13.8-12.22 14.75-19.857 7.69-21.279-19.69-53.829-20.8-76.319-2.1-9.902 8.16-1.001 8.27-20.594-5.59Zm21.858 19.12c-3.055-3.31-5.267-2.68 3.898-9.85 33.761-26.28 76.003 2.48 69.103 9.85-19.488 20.97-5.162 15.49-20.963 5.38-6.162-3.95-14.484-5.96-22.858-4.11-31.023 6.79-5.32 24.38-29.18-1.27Zm14.748 18.81c8.164-13.91 26.177-15.96 37.448-5.69 8.164 7.48 4.372 7-2.212 20.28-37.606-3.8-20.172 8.48-35.236-14.59Zm-73.633 85.38c-17.381-5.75-23.965 0-5.32-20.76 58.78-65.36 163.857-57.99 212.472 16.44-24.439 4.89-20.068 8.42-23.228 4.32-44.98-58.05-130.727-57.99-176.287-3.11-4.424 5.42-1.738 5.05-7.637 3.11Zm12.43 4.79c-5.688-2.48 29.97-42.72 82.166-42.72 53.828 0 86.747 41.4 83.798 42.72-21.174 9.32-16.223 11.64-20.278 7.11-28.969-32.24-77.952-38.29-113.873-11.9-23.28 17.06-4.951 16.59-31.813 4.79Zm24.597 13.96c-7.058-5.01 41.61-46.41 92.91-20.81 7.005 3.48 27.915 17.91 23.86 20.81-19.488 13.8-12.22 14.74-19.857 7.69-21.331-19.76-53.934-20.7-76.319-2.11-9.902 8.16-1.001 8.27-20.594-5.58Zm18.751 15.85c21.278-24.07 58.306-22.96 78.425.84-26.229 26.92-2.58 16.22-27.599 5.43-7.321-3.16-14.8-3.27-22.226-.63-26.704 9.58-1.897 21.33-28.6-5.64Zm17.855 22.07c9.955-17.01 34.13-15.75 42.715 1.31-11.166 17.44-1.896 12.54-21.752 12.54-18.172 0-8.744 4.79-20.963-13.85Zm-73.633 85.38c-17.75-5.85-24.017.05-5.32-20.76 58.938-65.57 163.962-57.77 212.472 16.44-23.86 4.79-20.173 8.32-23.228 4.32-44.822-57.78-130.516-58.26-176.287-3.11-4.424 5.42-1.738 5.06-7.637 3.11Zm12.43 4.79c-6.057-2.69 30.444-42.72 82.166-42.72 53.934 0 86.695 41.46 83.798 42.72-21.279 9.37-16.17 11.64-20.278 7.11-28.969-32.23-77.952-38.29-113.873-11.9-23.333 17.17-4.951 16.64-31.813 4.79Zm24.597 13.96c-7.11-5.01 41.768-46.35 92.91-20.81 7.005 3.48 27.915 17.91 23.86 20.81-19.488 13.8-12.22 14.74-19.857 7.69-21.331-19.75-53.934-20.7-76.319-2.11-9.902 8.16-1.001 8.27-20.594-5.58Zm18.751 15.85c21.226-23.96 58.253-23.02 78.425.84-26.229 26.92-2.58 16.23-27.599 5.43-7.321-3.16-14.8-3.27-22.226-.63-26.704 9.58-1.844 21.38-28.6-5.64Zm17.855 22.07c10.007-17.07 34.13-15.64 42.715 1.32-11.166 17.43-1.896 12.53-21.752 12.53-18.172 0-8.744 4.79-20.963-13.85Zm21.805 201.52c-2.528-20.39-5.109-16.7-.79-16.7 6.531 0 3.424-4.64.79 16.7Zm-.79-22.76c-8.427 0-.474-2.21-17.486-31.02-9.428-15.96 27.23-28.13 39.239-4.32-19.804 30.86-10.587 35.34-21.753 35.34Zm37.291-55.51c-19.541 21.01-5.109 15.54-20.963 5.37-6.215-4-14.59-5.9-22.859-4.11-31.075 6.8-5.372 24.39-29.232-1.26-8.058-8.69 22.122-22.49 41.03-20.6 14.643 1.53 37.659 14.54 32.024 20.6Zm21.858-19.12c-19.488 13.8-12.22 14.75-19.857 7.69-21.595-19.96-54.145-20.54-76.319-2.11-9.902 8.22-1.001 8.32-20.594-5.53-7.11-5 41.768-46.35 92.91-20.8 7.005 3.42 27.968 17.85 23.86 20.75Zm24.597-13.96c-21.279 9.38-16.17 11.64-20.278 7.11-29.127-32.44-78.11-38.13-113.873-11.9-23.386 17.12-4.951 16.59-31.813 4.79-6.057-2.63 30.444-42.71 82.166-42.71 53.986 0 86.747 41.45 83.798 42.71Zm5.53-4.74c-44.875-57.88-130.569-58.15-176.287-3.11-4.477 5.38-1.738 5.06-7.637 3.11-17.697-5.85-23.965.05-5.32-20.75 58.833-65.47 163.91-57.89 212.472 16.43-23.86 4.74-20.12 8.27-23.228 4.32Zm71.947-8.01c-3.897 5.96-6.478-2.73-41.714 2.43-8.533 1.26-1.106-31.55 24.702-27.13 11.693 1.95 23.701 14.49 17.012 24.7Zm-18.698-30.97c-5.056-.42-9.585.48-13.167 1.85-33.288 12.64-.421 34.02-34.288 2.79 19.698-34.5 69.103-35.08 89.539-.95-35.026 31.66-1.212-.47-42.084-3.69Zm136.943 155.07c-2.528-20.39-5.109-16.7-.79-16.7 6.531 0 3.423-4.64.79 16.7Zm-.79-22.76c-8.428 0-.527-2.21-17.487-31.02-9.533-16.17 27.283-27.97 39.239-4.32-19.804 30.92-10.586 35.34-21.752 35.34Zm37.29-55.51c-19.488 20.96-5.109 15.48-20.963 5.37-6.215-4-14.589-5.9-22.858-4.11-31.076 6.8-5.373 24.39-29.232-1.26-8.059-8.69 22.121-22.49 41.03-20.6 14.642 1.53 37.659 14.54 32.023 20.6Zm21.858-19.12c-19.488 13.8-12.219 14.75-19.856 7.69-21.332-19.75-53.935-20.7-76.319-2.11-9.902 8.22-1.001 8.32-20.594-5.53-7.058-5 41.609-46.45 92.91-20.8 7.057 3.42 27.967 17.85 23.859 20.75Zm24.597-13.96c-21.279 9.38-16.17 11.64-20.278 7.11-28.863-32.13-77.846-38.34-113.873-11.9-23.385 17.12-4.951 16.59-31.812 4.79-5.689-2.53 30.022-42.71 82.165-42.71 53.934 0 86.695 41.45 83.798 42.71Zm5.53-4.74c-44.769-57.78-130.516-58.25-176.286-3.11-4.477 5.38-1.738 5.06-7.637 3.11-17.434-5.74-23.965 0-5.32-20.75 59.148-65.84 164.172-57.52 212.471 16.43-23.86 4.74-20.12 8.27-23.228 4.32Zm72-8.01c-3.897 5.9-6.425-2.79-41.714 2.43-8.533 1.26-1.106-31.55 24.702-27.13 11.64 1.95 23.702 14.49 17.012 24.7Zm-18.75-30.97c-5.056-.42-9.586.43-13.168 1.85-33.34 12.69-.421 34.02-34.288 2.79 19.699-34.45 69.103-35.08 89.539-.95-35.025 31.66-1.211-.47-42.083-3.69Zm136.942 155.12c-2.528-20.39-5.109-16.7-.79-16.7 6.531-.05 3.424-4.69.79 16.7Zm-.79-22.81c-8.427 0-.527-2.21-17.486-31.02-9.428-16.07 27.23-28.07 39.239-4.32-19.804 30.92-10.587 35.34-21.753 35.34Zm37.343-55.51c-19.54 21.01-5.109 15.54-20.963 5.37-6.215-4-14.589-5.9-22.858-4.11-31.076 6.8-5.373 24.39-29.232-1.26-8.059-8.69 22.121-22.49 41.03-20.6 14.642 1.53 37.606 14.54 32.023 20.6Zm21.858-19.12c-19.488 13.8-12.219 14.75-19.856 7.69-21.332-19.75-53.935-20.7-76.319-2.11-9.902 8.22-1.001 8.32-20.594-5.53-7.005-4.95 41.662-46.4 92.91-20.8 7.005 3.42 27.915 17.85 23.859 20.75Zm24.597-13.96c-21.331 9.38-16.17 11.64-20.278 7.11-29.074-32.39-78.057-38.18-113.873-11.9-23.385 17.12-4.951 16.59-31.812 4.79-6.057-2.63 30.443-42.71 82.165-42.71 53.934 0 86.695 41.45 83.798 42.71Zm5.53-4.74c-45.085-58.15-130.832-57.88-176.286-3.11-4.477 5.38-1.738 5.06-7.637 3.11-17.592-5.79-23.965 0-5.32-20.75 58.569-65.21 163.698-58.2 212.471 16.43-23.912 4.74-20.173 8.27-23.228 4.32Zm71.948-8.01c-3.898 5.96-6.479-2.73-41.715 2.43-8.532 1.26-1.106-31.55 24.702-27.13 11.641 1.95 23.702 14.49 17.013 24.7Zm-18.698-30.97c-5.056-.42-9.586.48-13.168 1.85-33.287 12.64-.421 34.02-34.288 2.79 19.699-34.5 69.103-35.03 89.539-.95-35.078 31.66-1.211-.47-42.083-3.69Zm136.942 155.07c-2.528-20.39-5.109-16.7-.79-16.7 6.479 0 3.371-4.64.79 16.7Zm-.843-22.76c-8.427 0-.474-2.21-17.486-31.02-9.428-15.96 27.23-28.13 39.236-4.32-19.748 30.86-10.531 35.34-21.75 35.34Zm37.34-55.51c-19.54 21.01-5.11 15.54-20.96 5.37-6.214-4-14.589-5.9-22.858-4.11-31.075 6.8-5.372 24.39-29.232-1.26-8.058-8.69 22.122-22.49 41.03-20.6 14.59 1.53 37.66 14.54 32.02 20.6Zm21.86-19.12c-19.49 13.8-12.22 14.75-19.86 7.69a57.793 57.793 0 0 0-76.314-2.11c-9.902 8.22-1.001 8.32-20.594-5.53-7.058-5 41.609-46.45 92.908-20.8 7.01 3.42 27.92 17.85 23.86 20.75Zm24.6-13.96c-21.17 9.32-16.22 11.64-20.28 7.11-29.13-32.44-78.162-38.13-113.872-11.9-23.386 17.12-4.951 16.59-31.813 4.79-5.688-2.53 29.969-42.71 82.165-42.71 53.88 0 86.8 41.39 83.8 42.71Zm5.53-4.74c-44.82-57.78-130.518-58.25-176.288-3.11-4.477 5.38-1.738 5.06-7.637 3.11-17.697-5.85-23.965.05-5.32-20.75 58.991-65.68 164.065-57.73 212.475 16.43-23.86 4.74-20.12 8.27-23.23 4.32Zm71.95-8.01c-3.9 5.9-6.48-2.73-41.72 2.43-8.53 1.26-1.1-31.55 24.7-27.13 11.7 1.95 23.71 14.49 17.02 24.7Zm-18.7-30.97c-5.06-.42-9.59.43-13.17 1.85-33.29 12.69-.42 34.02-34.29 2.79 19.7-34.45 69.05-35.08 89.54-.95-35.02 31.66-1.21-.47-42.08-3.69Zm136.94 155.07c-2.53-20.39-5.11-16.7-.79-16.7 6.53 0 3.42-4.64.79 16.7Zm-.79-22.76c-8.43 0-.53-2.21-17.49-31.02-9.48-16.12 27.23-28.02 39.24-4.32-20.91 32.55-10.11 35.34-21.75 35.34Zm37.29-55.51c-19.49 20.96-5.16 15.48-20.96 5.37-6.16-3.9-14.49-5.95-22.86-4.11-31.08 6.8-5.37 24.39-29.23-1.26-8.06-8.69 22.12-22.49 41.03-20.6 14.64 1.53 37.66 14.54 32.02 20.6Zm21.86-19.12c-19.49 13.8-12.22 14.75-19.86 7.69-21.33-19.75-53.93-20.7-76.32-2.11-9.9 8.22-1 8.32-20.59-5.53-7.11-5.06 41.82-46.35 92.91-20.8 7.06 3.47 27.97 17.85 23.86 20.75Zm24.6-13.96c-21.18 9.32-16.23 11.64-20.28 7.11-28.92-32.18-77.9-38.29-113.87-11.9-23.39 17.12-4.96 16.59-31.82 4.79-5.63-2.47 29.92-42.71 82.17-42.71 53.83 0 86.8 41.39 83.8 42.71Zm77.53-12.75c-3.74 5.69-8.11-2.52-41.72 2.43-8.58 1.26-1.1-31.55 24.7-27.13 11.64 1.95 23.71 14.49 17.02 24.7Zm-18.75-30.97c-5.06-.42-9.59.48-13.17 1.85-33.29 12.69-.42 34.02-34.29 2.79 19.7-34.45 69.1-35.08 89.54-.95-34.92 31.6-1.32-.47-42.08-3.69Zm46.77-.36c-16.33-26.13-50.25-35.14-77.27-20.07-32.87 18.27-7.58 28.6-36.29 10.11-12.38-7.95 68.52-76.48 124.67-10.95 10.17 11.9 7.43 5.53-11.11 20.91Zm-131.47-37.45c42.24-51.2 120.93-51.67 163.86-.85 14.11 16.65 10.32 13.65.63 17.91-16.54 7.27-4.74 7.06-22.91-10.48-30.18-29.13-76.48-31.81-109.66-7.48-32.39 23.7-10.8 27.86-33.39 17.91-8.17-3.53-12.12-.58 1.47-17.01Zm54.67 72.42c-24.38 4.9-20.06 8.43-23.22 4.32-44.62-57.52-130.31-58.52-176.29-3.11-4.48 5.37-1.74 5.06-7.64 3.11-17.8-5.85-24.02.05-5.32-20.75 58.99-65.63 164.07-57.73 212.47 16.43Zm-112.5-67.21c-18.22 0-8.8 4.79-21.01-13.85 9.95-16.96 34.07-15.8 42.71 1.32-11.11 17.43-1.84 12.53-21.7 12.53Zm12.01-29.65c-7.48-3.21-14.96-3.21-22.23-.63-26.75 9.53-1.95 21.28-28.65-5.69 21.23-24.02 58.25-23.02 78.43.84-26.23 27.02-2.59 16.28-27.55 5.48Zm47.14-22.12c-19.49 13.8-12.22 14.74-19.86 7.69-21.33-19.75-53.93-20.7-76.32-2.11-9.9 8.22-1 8.32-20.59-5.53-7.11-5.06 41.82-46.35 92.91-20.81 6.58 3.22 27.91 17.91 23.86 20.76Zm24.6-13.96c-21.18 9.32-16.23 11.64-20.28 7.11-29.08-32.34-78.06-38.19-113.87-11.9-23.39 17.11-4.96 16.59-31.82 4.79-6.05-2.63 30.39-42.72 82.17-42.72 53.83 0 86.8 41.4 83.8 42.72Zm77.53-12.75c-3.74 5.69-8.11-2.53-41.72 2.43-8.58 1.26-1.1-31.55 24.7-27.13 11.64 1.95 23.71 14.49 17.02 24.7Zm-18.75-30.97c-5.06-.42-9.59.42-13.17 1.85-33.29 12.69-.42 34.02-34.29 2.79 19.7-34.45 69.1-35.08 89.54-.95-35.18 31.81-1.16-.42-42.08-3.69Zm46.77-.37c-16.33-26.12-50.25-35.13-77.27-20.06-35.18 19.59-7.01 28.97-36.29 10.11-12.38-7.95 68.52-76.48 124.67-10.96 10.17 11.91 7.43 5.53-11.11 20.91Zm-131.47-37.44c42.51-51.46 121.14-51.46 163.86-.85 14.11 16.65 10.32 13.64.63 17.91-16.54 7.27-4.74 7.06-22.91-10.48-30.5-29.44-76.85-31.55-109.66-7.48-32.39 23.7-10.8 27.86-33.39 17.91-8.17-3.53-12.12-.58 1.47-17.01Zm54.67 72.42c-24.38 4.9-20.06 8.42-23.22 4.32-44.62-57.52-130.31-58.52-176.29-3.11-4.48 5.37-1.74 5.06-7.64 3.11-17.8-5.85-24.02.05-5.32-20.76 58.62-65.25 163.75-58.2 212.47 16.44Zm-112.5-67.21c-18.22 0-8.8 4.79-21.01-13.85 10-17.12 34.18-15.59 42.71 1.31-11.11 17.44-1.84 12.54-21.7 12.54Zm12.01-29.65c-7.48-3.22-14.96-3.22-22.23-.63-26.75 9.53-1.89 21.33-28.65-5.69 21.33-24.07 58.31-22.91 78.43.84-26.23 27.02-2.59 16.27-27.55 5.48Zm47.14-22.12c-19.75 14.01-12.17 14.74-19.86 7.69-21.33-19.76-53.93-20.7-76.32-2.11-9.9 8.22-1 8.32-20.59-5.53-7.11-5.06 41.82-46.35 92.91-20.81 6.58 3.22 27.91 17.91 23.86 20.76Zm24.6-13.96c-21.18 9.32-16.23 11.64-20.28 7.11-29.02-32.29-78.01-38.24-113.87-11.9-23.28 17.06-4.96 16.59-31.82 4.79-5.69-2.53 29.97-42.72 82.17-42.72 53.98 0 86.8 41.4 83.8 42.72Zm77.53-12.75c-3.01 4.53 1.95.9-21.12.9-24.39 0-19.49 4-22.71-.9-6.42-9.79 13.07-33.34 34.08-22.17 6.95 3.68 15.59 13.17 9.75 22.17Zm-12.12-29.7c-4.37-1.37-8.06-1.79-13.06-1.11-39.24 5.27-6.53 36.24-41.03 4.48 19.7-34.45 69.1-35.08 89.54-.95-33.5 30.28-1.37 8.27-35.45-2.42Zm48.56-8.06c-16.22 11.48-.84 6-24.43-10.48-19.86-13.91-47.25-14.44-68.05 1.31-22.49 17.07-6.43 21.76-24.23 9.17-7.22-5.11-12.91-3.64 4.16-20.07 29.86-28.76 77.11-29.92 108.29-1.58 19.01 17.33 12.43 15.85 4.26 21.65Zm-139.89-31.03c42.14-51.03 120.72-51.82 163.86-.84 14.11 16.65 10.32 13.64.63 17.91-16.54 7.27-4.74 7.06-22.91-10.48-30.08-29.02-76.32-31.87-109.66-7.48-32.44 23.81-10.74 27.86-33.39 17.91-8.17-3.53-12.12-.63 1.47-17.02Zm54.67 72.43c-23.86 4.79-20.17 8.32-23.22 4.32-44.72-57.68-130.41-58.36-176.29-3.11-4.48 5.37-1.74 5.05-7.64 3.11-17.64-5.85-23.96.05-5.32-20.76 58.62-65.26 163.75-58.14 212.47 16.44Zm-112.5-67.21c-16.43 0-10.48 3.69-17.49-8.22-9.53-16.17 27.29-27.97 39.24-4.32-11.16 17.44-1.89 12.54-21.75 12.54Zm37.29-32.66c-19.49 20.97-5.16 15.49-20.96 5.38-6.16-3.95-14.54-5.9-22.86-4.11-31.08 6.79-5.37 24.38-29.23-1.27-8.06-8.69 22.12-22.49 41.03-20.59 14.64 1.53 37.66 14.54 32.02 20.59Zm21.86-19.12c-19.49 13.8-12.22 14.75-19.86 7.69-21.33-19.75-53.93-20.7-76.32-2.1-9.9 8.21-1 8.32-20.59-5.53-7.11-5.01 41.66-46.41 92.91-20.81 7.06 3.48 27.97 17.86 23.86 20.75Zm24.6-13.95c-21.18 9.32-16.23 11.64-20.28 7.11-28.92-32.18-77.9-38.29-113.87-11.91-23.28 17.07-4.96 16.59-31.82 4.8-5.79-2.53 30.13-42.72 82.17-42.72 53.98 0 86.75 41.4 83.8 42.72Zm77.53-12.75c-3.01 4.53 1.95.9-21.12.9-24.44 0-19.49 4-22.71-.9-6.68-10.16 13.38-33.18 34.08-22.17 6.95 3.68 15.59 13.16 9.75 22.17Zm-12.12-29.71c-4.26-1.36-7.95-1.79-13.06-1.1-39.24 5.27-6.53 36.29-41.03 4.48 19.7-34.5 69.1-35.03 89.54-.95-33.5 30.28-1.37 8.27-35.45-2.43Zm48.56-8.05c-16.22 11.48-.84 6-24.43-10.49-19.86-13.9-47.25-14.43-68.05 1.32-22.49 17.07-6.43 21.75-24.23 9.17-7.22-5.11-12.91-3.64 4.16-20.07 30.07-28.97 77.27-29.71 108.29-1.58 19.01 17.33 12.43 15.85 4.26 21.65Zm23.97-31.87c14.11 16.7 10.32 13.64.63 17.91-20.07 8.85-1.11 4.58-31.81-17.91-34.66-25.44-81.96-20.8-111.29 9.06-19.12 19.44-1.37 16.43-30.97 5.58 38.02-64.15 126.62-70.05 173.44-14.64Zm-109.19 73.26c-24.12 4.85-20.12 8.38-23.22 4.32-44.83-57.93-130.68-58.09-176.29-3.1-4.48 5.37-1.79 5.05-7.64 3.1-17.59-5.79-23.96 0-5.32-20.75 58.62-65.26 163.75-58.15 212.47 16.43Zm-133.51-81.05c8.16-13.91 26.22-15.96 37.44-5.69 8.17 7.48 4.38 7-2.21 20.28-37.55-3.8-20.17 8.42-35.23-14.59Zm58.3-18.81c-19.49 20.97-5.16 15.49-20.96 5.37-6.27-4-14.59-5.89-22.86-4.1-31.08 6.79-5.37 24.38-29.23-1.27-7.9-8.48 20.49-20.85 35.71-20.85 21.01 0 42.29 15.53 37.34 20.85Zm-6.37-17.91c-17.8-11.27-40.87-12.27-59.99-1.1-23.86 13.9-3.11 17.06-30.87-1.74 32.24-37.18 89.28-36.18 120.51.69-26.65 18.32-7.95 15.9-29.65 2.15Zm24.7-15.8c-31.71-27.28-77.9-27.28-109.45-1.58-18.75 15.23-1.95 13.22-30.71 1.16 43.19-55.881 126.78-55.301 169.39.53-27.18 11.69-12.9 13.96-29.23-.11Zm105.66-12.11c-2.95 4.53 1.73.89-21.12.89-24.44 0-19.49 4.01-22.71-.89-6.42-9.8 13.12-33.341 34.08-22.175 6.95 3.685 15.59 13.165 9.75 22.175Zm7.63-10.53c-9.69-28.183-49.72-27.182-57.99 1.42-15.74-20.28-20.49-14.908-7.95-27.76 19.54-20.067 51.41-21.173 72.26-2.001 14.86 13.694 8.85 9.27-6.32 28.341Zm20.39-20.809c-22.97-36.711-76.48-36.395-98.87.895-18.75-15.854-20.33-9.533-12.58-19.277 31.02-39.345 89.9-40.609 122.56-2.528 10.17 11.903 7.43 5.53-11.11 20.91Zm32.39-38.291c14.11 16.696 10.32 13.641.63 17.907-20.07 8.849-1.11 4.583-31.81-17.907-34.66-25.44-81.96-20.805-111.29 9.059-19.12 19.435-1.37 16.433-30.97 5.583 38.02-64.152 126.62-69.999 173.44-14.642Zm-112.08 69c5.21 7.32 4.63 1.63-18.86 10.53-44.98-60.938-135.73-61.148-181.13-.47-24.12-8.85-24.97-2.32-17.86-12.01 54.36-73.792 164.6-73.107 217.85 1.95Zm-130.62-76.796c8.16-13.904 26.22-15.959 37.44-5.688 8.17 7.479 4.38 7.005-2.21 20.278-37.55-3.792-20.17 8.427-35.23-14.59Zm58.3-18.803c-19.49 20.963-5.16 15.485-20.96 5.373-6.27-4.003-14.59-5.899-22.86-4.109-31.08 6.795-5.37 24.387-29.23-1.264-7.9-8.48 20.49-20.857 35.71-20.857 20.64 0 42.45 15.38 37.34 20.857Zm-6.37-17.908c-17.86-11.324-40.87-12.219-59.99-1.106-23.86 13.905-3.16 17.013-30.87-1.738 32.24-37.185 89.28-36.184 120.51.685-26.65 18.329-7.95 15.906-29.65 2.159Zm24.7-15.801c-31.71-27.283-77.9-27.283-109.45-1.58-18.75 15.222-1.95 13.22-30.71 1.159 43.19-55.883 126.78-55.304 169.39.527-27.18 11.692-12.9 13.957-29.23-.106Zm105.66-12.166c-3.01 4.529 1.95.895-21.12.895-24.44 0-19.49 4.003-22.71-.895-6.68-10.166 13.38-33.183 34.08-22.174 6.95 3.739 15.59 13.22 9.75 22.174Zm7.63-10.482c-9.69-28.178-49.72-27.23-57.99 1.422-15.74-20.278-20.49-14.905-7.95-27.757 19.54-20.067 51.41-21.173 72.26-2.001 14.86 13.694 8.85 9.322-6.32 28.336Zm20.39-20.804c-22.91-36.606-76.43-36.448-98.87.895-18.8-15.906-20.33-9.481-12.58-19.277 30.97-39.24 89.96-40.556 122.56-2.528 10.17 11.85 7.43 5.53-11.11 20.91Zm31.65-39.082c15.17 17.592 10.9 14.537 1.37 18.751-16.54 7.268-4.74 7.058-22.91-10.481-34.39-33.183-87.8-31.392-120.19 1.58-19.12 19.435-1.37 16.433-30.97 5.583 37.39-63.046 124.82-70.842 172.7-15.433Zm-111.34 69.788c5.21 7.321 4.63 1.633-18.86 10.534-45.14-60.992-135.78-61.097-181.13-.474-24.12-8.848-24.97-2.317-17.86-12.009 54.25-73.632 164.49-73.264 217.85 1.949Zm-130.62-76.793c9.84-16.854 33.97-16.011 42.71 1.317-2.74 4.266-5.21 8.691-7.48 13.273-37.29-3.792-20.28 8.269-35.23-14.59Zm46.56-4.319c-11.75-18.013-37.72-18.698-50.3-1.106a141.388 141.388 0 0 0-14.07-16.591c21.02-23.754 57.94-23.385 78.43.843-5.11 5.214-9.8 10.85-14.06 16.854Zm18.38-21.173c-22.86-26.598-63.63-27.178-87.17-.79-5.22-4.846-10.8-9.323-16.75-13.326 32.13-37.079 89.06-36.5 120.51.685a143.864 143.864 0 0 0-16.59 13.431Zm21.8-16.855c-33.97-40.819-96.28-41.398-130.88-.632a142.506 142.506 0 0 0-19.39-9.954c43.04-55.672 126.47-55.725 169.39.527-6.63 2.896-13.06 6.267-19.12 10.059Zm25.02-12.377c-45.19-61.045-135.57-61.361-181.13-.474-7.06-2.581-14.43-4.582-21.96-6.004 53.24-81.112 171.75-81.165 224.9.263-7.54 1.422-14.8 3.529-21.81 6.215Z" />
    <path
      d="M19.33 1617.68c-6.636-.58-13.062-.58-19.33-.11v5.9c60.255-4.69 121.405 43.3 115.98 114.77-4.372 57.57-42.084 65.05-20.49 65.05 59.781-70.11 14.274-177.82-76.16-185.61Z" />
    <path
      d="M5.214 1644.91c-1.79.1-3.476.31-5.214.47v7.06c41.557-5 86.642 18.54 88.75 74.69 2.949 77.9-79.375 76.16-35.026 76.16 76.002-46.09 39.291-162.86-48.51-158.38Z" />
    <path
      d="M0 1673.77v5.37c1.949-.31 4.003-.58 6.11-.68 70.683-4.64 74.212 103.65 3.423 103.65-3.37 0-6.478-.31-9.533-.79v5.9c29.021 4.48 61.255-11.58 66.838-48.35 7.216-47.93-32.128-69.79-66.838-65.1Z" />
    <path
      d="M18.593 1701.16a30.217 30.217 0 0 0-18.593.16v6.58c16.17-5.48 38.66 3.21 33.393 27.44-3.582 16.38-20.489 22.65-33.393 17.33v6.43c14.906 4.79 33.182-1.95 38.66-20.28 5.109-17.01-4.951-32.92-20.067-37.66ZM298.007 1617.68c-99.23-8.59-161.591 108.34-95.754 185.61h8.164c-37.659-40.09-38.239-101.45-3.74-142.05 67.418-79.64 195.775-25.02 188.033 77.05-4.372 57.57-42.084 65.05-20.489 65.05 59.78-70.21 14.168-177.87-76.214-185.66Z" />
    <path
      d="M283.892 1644.91c-83.114 4.16-112.24 114.5-39.872 158.43 42.242 0-27.177 3.58-34.656-64.47-11.746-107.18 153.954-120.4 158.115-11.69 2.95 77.9-79.374 76.16-35.025 76.16 75.739-46.03 39.66-162.91-48.562-158.43Z" />
    <path
      d="M345.516 1738.87c13.167-87.17-127.883-88.01-114.558 0 9.85 65.37 104.656 65.47 114.558 0Zm-57.305 43.19c-66.417 0-69.841-99.33-3.424-103.65 70.736-4.64 74.265 103.65 3.424 103.65Z" />
    <path
      d="M297.27 1701.16c-22.754-7.11-45.349 13.75-38.186 37.71 8.691 29.02 49.51 29.08 58.253 0 5.109-17.06-4.951-32.97-20.067-37.71Zm14.8 34.18c-5.267 24.02-39.186 26.23-46.981 2.32-13.01-39.92 55.83-42.77 46.981-2.32ZM576.685 1617.68c-99.968-8.64-161.171 108.81-95.755 185.61h8.164c-37.343-39.72-38.554-101.02-3.739-142.05 67.417-79.64 195.774-24.97 188.032 77.05-4.372 57.57-42.083 65.05-20.489 65.05 59.886-70.31 14.011-177.92-76.213-185.66Z" />
    <path
      d="M562.622 1644.91c-83.219 4.21-112.187 114.56-39.871 158.43 42.241 0-27.178 3.58-34.657-64.47-11.746-107.18 153.954-120.46 158.115-11.69 2.95 77.9-79.374 76.16-35.025 76.16 75.581-45.93 39.765-162.96-48.562-158.43Z" />
    <path
      d="M624.193 1738.87c13.168-87.22-127.883-87.9-114.557 0 9.902 65.37 104.655 65.47 114.557 0Zm-57.252 43.19c-66.259 0-70.104-99.33-3.424-103.65 70.683-4.64 74.212 103.65 3.424 103.65Z" />
    <path
      d="M575.947 1701.16c-22.753-7.11-45.349 13.75-38.185 37.71 8.69 29.02 49.509 29.08 58.253 0 5.109-17.06-4.899-32.97-20.068-37.71Zm14.801 34.18c-5.215 23.97-39.134 26.34-46.982 2.32-12.957-39.98 55.83-42.72 46.982-2.32ZM855.415 1617.68c-99.599-8.59-161.434 108.55-95.754 185.61h8.163c-37.659-40.08-38.238-101.45-3.739-142.05 67.26-79.48 195.775-25.23 188.032 77.05-4.372 57.57-42.083 65.05-20.489 65.05 59.728-70.16 14.221-177.87-76.213-185.66Z" />
    <path
      d="M841.299 1644.91c-83.113 4.16-112.24 114.5-39.871 158.43 42.241 0-27.178 3.58-34.657-64.47-11.745-107.18 153.955-120.4 158.116-11.69 2.949 77.9-79.374 76.16-35.026 76.16 75.74-46.03 39.608-162.91-48.562-158.43Z" />
    <path
      d="M902.87 1738.87c13.168-87.17-127.882-88.01-114.557 0 9.902 65.37 104.656 65.47 114.557 0Zm-57.252 43.19c-66.417 0-69.84-99.33-3.423-103.65 70.683-4.64 74.212 103.65 3.423 103.65Z" />
    <path
      d="M854.677 1701.16c-22.753-7.11-45.349 13.75-38.185 37.71 8.69 29.02 49.509 29.08 58.253 0 5.056-17.06-4.951-32.97-20.068-37.71Zm14.801 34.18c-5.267 24.02-39.187 26.23-46.982 2.32-13.01-39.92 55.778-42.77 46.982-2.32ZM1134.09 1617.68c-99.49-8.59-161.484 108.5-95.75 185.61h8.16c-37.66-40.08-38.24-101.45-3.74-142.05 67.42-79.64 195.78-24.97 188.03 77.05-4.53 58.2-42.34 65.05-20.48 65.05 59.88-70.31 13.95-177.92-76.22-185.66Z" />
    <path
      d="M1119.98 1644.91c-83.22 4.21-112.19 114.56-39.87 158.43 42.24 0-27.18 3.58-34.66-64.47-11.69-106.87 153.95-120.61 158.11-11.69 2.9 77.9-79.37 76.16-35.02 76.16 75.32-45.77 40.03-162.96-48.56-158.43Z" />
    <path
      d="M1181.6 1738.87c13.17-87.38-127.83-87.69-114.56 0 9.85 65.37 104.66 65.47 114.56 0Zm-57.3 43.19c-66.26 0-70.11-99.33-3.43-103.65 70.58-4.64 74.32 103.65 3.43 103.65Z" />
    <path
      d="M1133.35 1701.16c-22.75-7.16-45.34 13.8-38.18 37.71 8.69 29.02 49.51 29.08 58.25 0 5.11-17.06-4.95-32.97-20.07-37.71Zm14.81 34.18c-5.22 23.97-39.14 26.34-46.99 2.32-13.01-39.92 55.83-42.82 46.99-2.32ZM1512 1701.21c-11.75-43.19-48.51-79.16-99.23-83.48-99.6-8.64-161.38 108.55-95.75 185.61h8.16c-37.4-39.77-38.45-101.02-3.74-142.05 67.42-79.64 195.72-25.02 188.03 77.05-4.26 57.57-42.13 65.05-20.49 65.05 11.33-13.27 18.86-27.91 23.02-42.92v-59.26Z" />
    <path
      d="M1398.71 1644.91c-83.12 4.16-112.24 114.5-39.87 158.43 42.24 0-27.18 3.63-34.66-64.47-11.75-107.18 153.95-120.46 158.11-11.69 2.9 77.9-79.37 76.16-35.02 76.16 75.58-45.93 39.76-162.91-48.56-158.43Z" />
    <path
      d="M1460.28 1738.87c13.22-87.43-127.78-87.48-114.56 0 9.9 65.37 104.66 65.47 114.56 0Zm-57.25 43.19c-66.26 0-70.06-99.33-3.43-103.65 70.69-4.64 74.21 103.65 3.43 103.65Z" />
    <path
      d="M1412.03 1701.16c-22.91-7.16-45.29 13.9-38.18 37.71 8.69 29.02 49.51 29.08 58.25 0 5.11-17.06-4.9-32.97-20.07-37.71Zm14.8 34.18c-5.26 24.13-39.24 26.18-46.98 2.32-13.01-39.92 55.78-42.72 46.98-2.32Z" />
  </g>
</svg>