<svg xmlns="http://www.w3.org/2000/svg" viewBox="0 0 375 375" version="1.0">
     <path
          d="M165.535 194.539c2.121 0 4.875-.211 6.465-.743v-1.273c-.532.11-1.059.11-1.696.11-3.605 0-5.722-3.5-10.812-16.22-5.086-13.038-7.102-19.503-20.14-21.199 13.78-1.59 20.988-9.117 20.988-19.082 0-9.433-6.36-16.535-27.875-16.535h-20.883v1.38c3.285.952 4.238 3.39 4.238 12.081v47.278c0 8.69-.953 11.128-4.238 12.082v1.378h17.172v-1.378c-3.286-.954-4.243-3.391-4.243-12.082V155.53h6.786c12.718 0 13.566 7.422 19.714 22.047 4.665 11.023 6.36 16.96 14.524 16.96ZM124.51 153.94v-32.543c1.7-.105 3.395-.21 4.985-.21 15.687 0 21.836 7.948 21.836 17.382 0 9.012-5.727 15.371-17.914 15.371Zm0 0" />
     <path
          d="M163.29 232.429h16.453v-1.332c-3.387-.848-4.84-2.902-4.84-14.035V188.39h50.332v28.672c0 11.133-1.453 13.187-4.84 14.035v1.332h16.454v-1.332c-3.387-.848-4.84-2.902-4.84-14.035v-53.957c0-11.133 1.453-13.188 4.84-14.035v-1.332h-16.454v1.332c3.387.847 4.84 2.902 4.84 14.035v23.59h-50.332v-23.59c0-11.133 1.453-13.188 4.84-14.035v-1.332H163.29v1.332c3.387.847 4.836 2.902 4.836 14.035v53.957c0 11.133-1.45 13.187-4.836 14.035Zm0 0" />
</svg>