<svg xmlns="http://www.w3.org/2000/svg" xmlns:xlink="http://www.w3.org/1999/xlink" width="500" zoomAndPan="magnify" viewBox="0 0 375 374.999991" height="500" preserveAspectRatio="xMidYMid meet" version="1.0"><defs><g/><clipPath id="5afcd58c95"><path d="M 69.589844 209.957031 L 304.894531 209.957031 L 304.894531 217.117188 L 69.589844 217.117188 Z M 69.589844 209.957031 " clip-rule="nonzero"/></clipPath><clipPath id="4567262643"><path d="M 69.589844 217.046875 L 304.894531 217.046875 L 304.894531 222.367188 L 69.589844 222.367188 Z M 69.589844 217.046875 " clip-rule="nonzero"/></clipPath><clipPath id="f7c125d0f0"><path d="M 69.589844 222.367188 L 304.894531 222.367188 L 304.894531 229.777344 L 69.589844 229.777344 Z M 69.589844 222.367188 " clip-rule="nonzero"/></clipPath><clipPath id="384448d2d7"><path d="M 69.589844 229.777344 L 304.894531 229.777344 L 304.894531 235.128906 L 69.589844 235.128906 Z M 69.589844 229.777344 " clip-rule="nonzero"/></clipPath><clipPath id="0d76f15d4d"><path d="M 69.589844 235.128906 L 304.894531 235.128906 L 304.894531 241.152344 L 69.589844 241.152344 Z M 69.589844 235.128906 " clip-rule="nonzero"/></clipPath></defs><g clip-path="url(#5afcd58c95)"><path fill="#edbd68" d="M 69.589844 209.957031 L 304.894531 209.957031 L 304.894531 217.117188 L 69.589844 217.117188 Z M 69.589844 209.957031 " fill-opacity="1" fill-rule="nonzero"/></g><g clip-path="url(#4567262643)"><path fill="#f2704e" d="M 69.589844 217.046875 L 304.894531 217.046875 L 304.894531 222.367188 L 69.589844 222.367188 Z M 69.589844 217.046875 " fill-opacity="1" fill-rule="nonzero"/></g><g clip-path="url(#f7c125d0f0)"><path fill="#de5152" d="M 69.589844 222.367188 L 304.894531 222.367188 L 304.894531 229.777344 L 69.589844 229.777344 Z M 69.589844 222.367188 " fill-opacity="1" fill-rule="nonzero"/></g><g clip-path="url(#384448d2d7)"><path fill="#a43845" d="M 69.589844 229.777344 L 304.894531 229.777344 L 304.894531 235.128906 L 69.589844 235.128906 Z M 69.589844 229.777344 " fill-opacity="1" fill-rule="nonzero"/></g><g clip-path="url(#0d76f15d4d)"><path fill="#602b53" d="M 69.589844 235.128906 L 304.894531 235.128906 L 304.894531 241.152344 L 69.589844 241.152344 Z M 69.589844 235.128906 " fill-opacity="1" fill-rule="nonzero"/></g><g fill="#1e1e1e" fill-opacity="1"><g transform="translate(112.430716, 139.741258)"><g><path d="M 14.496094 0 L 14.496094 -6.375 C 14.496094 -20.515625 5.070312 -27.921875 5.070312 -30.972656 C 9.980469 -24.316406 23.960938 -10.058594 19.484375 0 L 34.257812 0 C 34.617188 -1.347656 34.65625 -2.335938 34.65625 -3.523438 C 34.65625 -16.515625 19.882812 -16.753906 12.476562 -23.921875 C 14.734375 -21.785156 20.953125 -20.199219 24.476562 -20.199219 C 29.785156 -20.199219 34.339844 -23.84375 34.339844 -30.339844 C 34.339844 -36.003906 28.792969 -39.605469 23.167969 -39.605469 L 1.1875 -39.605469 L 1.1875 0 Z M 8.59375 -37.902344 C 15.722656 -37.902344 22.21875 -34.617188 22.21875 -27.722656 C 22.21875 -25.347656 20.753906 -23.488281 18.496094 -23.488281 C 12.792969 -23.488281 3.683594 -33.746094 2.96875 -37.902344 Z M 8.59375 -37.902344 "/></g></g></g><g fill="#1e1e1e" fill-opacity="1"><g transform="translate(147.676503, 139.741258)"><g><path d="M 0.59375 -14.773438 C 0.59375 -5.425781 6.652344 0.792969 15.722656 0.792969 C 24.832031 0.792969 30.894531 -5.425781 30.894531 -14.773438 C 30.894531 -24.082031 24.832031 -30.296875 15.722656 -30.296875 C 6.652344 -30.296875 0.59375 -24.082031 0.59375 -14.773438 Z M 15.761719 -29.03125 C 16.632812 -29.03125 17.347656 -28.199219 17.347656 -25.308594 C 17.347656 -24.675781 17.347656 -15.484375 17.347656 -14.773438 C 17.347656 -14.058594 17.347656 -4.871094 17.347656 -4.238281 C 17.347656 -1.347656 16.632812 -0.515625 15.761719 -0.515625 C 14.890625 -0.515625 14.179688 -1.347656 14.179688 -4.238281 C 14.179688 -4.871094 14.179688 -14.058594 14.179688 -14.773438 C 14.179688 -15.484375 14.179688 -24.675781 14.179688 -25.308594 C 14.179688 -28.199219 14.890625 -29.03125 15.761719 -29.03125 Z M 15.761719 -29.03125 "/></g></g></g><g fill="#1e1e1e" fill-opacity="1"><g transform="translate(179.160099, 139.741258)"><g><path d="M 1.1875 -29.507812 L 1.1875 0 L 15.445312 0 L 15.445312 -24.082031 C 15.445312 -25.269531 15.722656 -26.417969 16.910156 -26.417969 C 18.140625 -26.417969 18.101562 -24.675781 18.101562 -23.527344 L 18.101562 0 L 32.398438 0 L 32.398438 -22.019531 C 32.398438 -23.25 32.121094 -26.417969 33.824219 -26.417969 C 35.050781 -26.417969 35.011719 -24.675781 35.011719 -23.527344 L 35.011719 0 L 49.308594 0 L 49.308594 -20.953125 C 49.308594 -25.425781 46.933594 -30.296875 39.921875 -30.296875 C 35.40625 -30.296875 32.636719 -28.554688 31.210938 -26.734375 C 29.863281 -28.871094 27.328125 -30.296875 23.011719 -30.296875 C 19.484375 -30.296875 17.03125 -29.230469 15.445312 -27.921875 L 15.445312 -29.507812 Z M 1.1875 -29.507812 "/></g></g></g><g fill="#1e1e1e" fill-opacity="1"><g transform="translate(229.652668, 139.741258)"><g><path d="M 0 -29.507812 L 15.960938 0.0390625 C 14.496094 2.019531 11.128906 4.554688 11.128906 8.753906 C 11.128906 12.871094 14.496094 15.445312 17.625 16 L 24.121094 6.734375 C 21.863281 6.417969 17.070312 3.367188 16.992188 -0.394531 L 32.398438 -29.507812 L 20.277344 -29.507812 C 19.84375 -29.507812 19.328125 -28.992188 19.328125 -28.238281 C 19.328125 -24.59375 24.039062 -22.140625 24.039062 -18.296875 C 24.039062 -16.953125 23.328125 -15.089844 22.417969 -13.941406 L 14.101562 -29.507812 Z M 0 -29.507812 "/></g></g></g><g fill="#1e1e1e" fill-opacity="1"><g transform="translate(90.549037, 179.315451)"><g><path d="M 15.445312 0 L 15.445312 -22.574219 C 15.445312 -24.277344 15.445312 -26.417969 17.109375 -26.417969 C 18.65625 -26.417969 18.773438 -24.792969 18.773438 -22.574219 L 18.773438 0 L 33.070312 0 L 33.070312 -20.953125 C 33.070312 -25.425781 30.695312 -30.296875 23.683594 -30.296875 C 20 -30.296875 17.230469 -29.148438 15.445312 -27.722656 L 15.445312 -39.605469 L 1.1875 -39.605469 L 1.1875 0 Z M 15.445312 0 "/></g></g></g><g fill="#1e1e1e" fill-opacity="1"><g transform="translate(124.804776, 179.315451)"><g><path d="M 1.1875 -29.507812 L 1.1875 -8.554688 C 1.1875 -4.078125 3.566406 0.792969 10.574219 0.792969 C 14.257812 0.792969 17.03125 -0.355469 18.8125 -1.78125 L 18.8125 0 L 33.070312 0 L 33.070312 -29.507812 L 18.8125 -29.507812 L 18.8125 -6.929688 C 18.8125 -5.226562 18.8125 -3.089844 17.148438 -3.089844 C 15.605469 -3.089844 15.484375 -4.714844 15.484375 -6.929688 L 15.484375 -29.507812 Z M 1.1875 -29.507812 "/></g></g></g><g fill="#1e1e1e" fill-opacity="1"><g transform="translate(159.060514, 179.315451)"><g><path d="M 13.78125 15.167969 C 22.574219 15.167969 32.359375 9.109375 32.359375 1.542969 C 32.359375 -0.753906 31.367188 -3.40625 27.167969 -3.40625 L 14.574219 -3.40625 C 13.1875 -3.40625 10.8125 -3.089844 10.8125 -4.160156 C 10.8125 -4.832031 11.445312 -5.03125 12.316406 -5.03125 C 13.308594 -5.03125 14.65625 -4.792969 15.84375 -4.792969 C 25.03125 -4.792969 31.128906 -9.902344 31.128906 -17.546875 C 31.128906 -25.191406 25.03125 -30.296875 15.84375 -30.296875 C 15.445312 -30.296875 15.050781 -30.296875 14.65625 -30.257812 C 14.496094 -30.535156 14.417969 -30.773438 14.417969 -31.089844 C 14.417969 -32.082031 15.289062 -32.199219 15.804688 -32.199219 C 18.058594 -32.238281 20.316406 -29.507812 24.238281 -29.507812 C 27.765625 -29.507812 29.507812 -31.960938 29.507812 -34.378906 C 29.507812 -35.960938 28.714844 -37.746094 27.167969 -38.417969 C 27.128906 -37.507812 26.339844 -36.003906 23.605469 -36.003906 L 19.128906 -36.003906 C 15.40625 -36.003906 13.1875 -34.378906 13.1875 -31.726562 C 13.1875 -31.050781 13.347656 -30.734375 13.625 -30.179688 C 5.703125 -29.425781 0.554688 -24.554688 0.554688 -17.546875 C 0.554688 -11.40625 4.476562 -6.929688 10.773438 -5.386719 C 7.289062 -4.238281 4.632812 -2.652344 4.355469 -0.160156 C 1.820312 0.792969 -0.199219 2.773438 -0.199219 5.742188 C -0.199219 11.367188 4.355469 15.167969 13.78125 15.167969 Z M 14.296875 -23.527344 C 14.296875 -28.082031 15.011719 -28.953125 15.84375 -28.953125 C 16.675781 -28.953125 17.386719 -28.082031 17.386719 -23.527344 L 17.386719 -11.566406 C 17.386719 -7.011719 16.675781 -6.140625 15.84375 -6.140625 C 15.011719 -6.140625 14.296875 -7.011719 14.296875 -11.566406 Z M 3.800781 2.851562 C 3.800781 1.863281 4.078125 1.265625 4.316406 0.832031 C 4.59375 4.910156 8.355469 7.089844 13.308594 7.089844 L 24.316406 7.089844 C 26.296875 7.089844 27.882812 6.851562 27.882812 7.761719 C 27.882812 9.03125 24.554688 9.902344 19.289062 9.902344 C 9.824219 9.902344 3.800781 7.050781 3.800781 2.851562 Z M 3.800781 2.851562 "/></g></g></g><g fill="#1e1e1e" fill-opacity="1"><g transform="translate(190.821334, 179.315451)"><g><path d="M 17.464844 0.792969 C 29.902344 0.792969 31.25 -9.148438 28.082031 -10.21875 C 27.84375 -8.199219 24.238281 -5.585938 21.742188 -5.585938 C 18.101562 -5.585938 15.804688 -7.328125 14.65625 -10.375 C 16.082031 -9.824219 17.664062 -9.464844 19.210938 -9.464844 C 24.121094 -9.464844 29.070312 -13.226562 29.070312 -19.25 C 29.070312 -27.25 22.695312 -30.339844 16.160156 -30.339844 C 6.8125 -30.339844 0.59375 -24.121094 0.59375 -14.773438 C 0.59375 -5.425781 7.683594 0.792969 17.464844 0.792969 Z M 14.179688 -12 C 13.902344 -13.347656 13.742188 -14.8125 13.742188 -16.476562 C 13.742188 -22.296875 14.890625 -28.199219 17.148438 -28.199219 C 17.941406 -28.199219 18.773438 -27.089844 18.773438 -24.160156 C 18.773438 -19.289062 16.871094 -13.625 14.179688 -12 Z M 14.179688 -12 "/></g></g></g><g fill="#1e1e1e" fill-opacity="1"><g transform="translate(220.76045, 179.315451)"><g><path d="M 1.1875 -29.507812 L 1.1875 0 L 15.445312 0 L 15.445312 -22.574219 C 15.445312 -24.277344 15.445312 -26.417969 17.109375 -26.417969 C 18.65625 -26.417969 18.773438 -24.792969 18.773438 -22.574219 L 18.773438 0 L 33.070312 0 L 33.070312 -20.953125 C 33.070312 -25.425781 30.695312 -30.296875 23.683594 -30.296875 C 20.039062 -30.296875 17.230469 -29.148438 15.445312 -27.722656 L 15.445312 -29.507812 Z M 1.1875 -29.507812 "/></g></g></g><g fill="#1e1e1e" fill-opacity="1"><g transform="translate(255.016189, 179.315451)"><g><path d="M 0.59375 -20.59375 C 0.59375 -7.367188 22.8125 -7.484375 22.8125 -3.328125 C 22.8125 -2.535156 22.339844 -1.941406 20.953125 -1.941406 C 16.039062 -1.941406 6.890625 -7.683594 4.039062 -12.121094 C 2.058594 -12 0.714844 -9.664062 0.714844 -7.40625 C 0.714844 -2.097656 6.773438 0.792969 14.019531 0.792969 C 22.851562 0.792969 28.320312 -2.890625 28.320312 -9.941406 C 28.320312 -23.25 4 -22.457031 4 -25.546875 C 4 -26.457031 5.308594 -26.457031 6.21875 -26.457031 C 10.652344 -26.457031 22.65625 -22.0625 24.59375 -19.011719 C 26.535156 -19.289062 27.882812 -21.230469 27.882812 -23.210938 C 27.882812 -28.636719 20.476562 -30.296875 14.496094 -30.296875 C 6.257812 -30.296875 0.59375 -27.210938 0.59375 -20.59375 Z M 0.59375 -20.59375 "/></g></g></g><g fill="#1e1e1e" fill-opacity="1"><g transform="translate(72.629241, 202.783676)"><g><path d="M 6.4375 0 L 5.34375 0 L 5.34375 -2.671875 L 1.9375 -2.671875 L 1.9375 0 L 0.84375 0 L 0.84375 -6.4375 L 1.9375 -6.4375 L 1.9375 -3.640625 L 5.34375 -3.640625 L 5.34375 -6.4375 L 6.4375 -6.4375 Z M 6.4375 0 "/></g></g></g><g fill="#1e1e1e" fill-opacity="1"><g transform="translate(86.996226, 202.783676)"><g><path d="M 1.296875 -5.53125 C 1.953125 -6.15625 2.757812 -6.46875 3.71875 -6.46875 C 4.6875 -6.46875 5.5 -6.15625 6.15625 -5.53125 C 6.8125 -4.914062 7.140625 -4.144531 7.140625 -3.21875 C 7.140625 -2.300781 6.8125 -1.523438 6.15625 -0.890625 C 5.5 -0.265625 4.6875 0.046875 3.71875 0.046875 C 2.757812 0.046875 1.953125 -0.265625 1.296875 -0.890625 C 0.640625 -1.523438 0.3125 -2.300781 0.3125 -3.21875 C 0.3125 -4.144531 0.640625 -4.914062 1.296875 -5.53125 Z M 3.734375 -5.5 C 3.097656 -5.5 2.550781 -5.273438 2.09375 -4.828125 C 1.644531 -4.390625 1.421875 -3.851562 1.421875 -3.21875 C 1.421875 -2.582031 1.644531 -2.039062 2.09375 -1.59375 C 2.550781 -1.144531 3.097656 -0.921875 3.734375 -0.921875 C 4.367188 -0.921875 4.910156 -1.144531 5.359375 -1.59375 C 5.804688 -2.039062 6.03125 -2.582031 6.03125 -3.21875 C 6.03125 -3.851562 5.804688 -4.390625 5.359375 -4.828125 C 4.910156 -5.273438 4.367188 -5.5 3.734375 -5.5 Z M 3.734375 -5.5 "/></g></g></g><g fill="#1e1e1e" fill-opacity="1"><g transform="translate(101.537906, 202.783676)"><g><path d="M 1.9375 -0.984375 L 4.71875 -0.984375 L 4.71875 0 L 0.84375 0 L 0.84375 -6.4375 L 1.9375 -6.4375 Z M 1.9375 -0.984375 "/></g></g></g><g fill="#1e1e1e" fill-opacity="1"><g transform="translate(113.541928, 202.783676)"><g><path d="M 1.9375 0 L 0.84375 0 L 0.84375 -6.4375 L 1.9375 -6.4375 Z M 1.9375 0 "/></g></g></g><g fill="#1e1e1e" fill-opacity="1"><g transform="translate(123.412841, 202.783676)"><g><path d="M 2.96875 -6.484375 C 3.800781 -6.484375 4.550781 -6.265625 5.21875 -5.828125 L 4.765625 -4.875 C 4.109375 -5.269531 3.476562 -5.46875 2.875 -5.46875 C 2.550781 -5.46875 2.296875 -5.40625 2.109375 -5.28125 C 1.921875 -5.164062 1.828125 -5 1.828125 -4.78125 C 1.828125 -4.570312 1.910156 -4.390625 2.078125 -4.234375 C 2.253906 -4.085938 2.472656 -3.976562 2.734375 -3.90625 C 2.992188 -3.84375 3.269531 -3.753906 3.5625 -3.640625 C 3.863281 -3.535156 4.144531 -3.421875 4.40625 -3.296875 C 4.664062 -3.179688 4.878906 -2.992188 5.046875 -2.734375 C 5.210938 -2.484375 5.296875 -2.179688 5.296875 -1.828125 C 5.296875 -1.253906 5.070312 -0.800781 4.625 -0.46875 C 4.175781 -0.132812 3.59375 0.03125 2.875 0.03125 C 2.382812 0.03125 1.90625 -0.0546875 1.4375 -0.234375 C 0.976562 -0.421875 0.578125 -0.671875 0.234375 -0.984375 L 0.703125 -1.921875 C 1.035156 -1.617188 1.394531 -1.382812 1.78125 -1.21875 C 2.164062 -1.0625 2.535156 -0.984375 2.890625 -0.984375 C 3.265625 -0.984375 3.554688 -1.050781 3.765625 -1.1875 C 3.984375 -1.332031 4.09375 -1.523438 4.09375 -1.765625 C 4.09375 -1.984375 4.003906 -2.164062 3.828125 -2.3125 C 3.660156 -2.46875 3.445312 -2.582031 3.1875 -2.65625 C 2.9375 -2.726562 2.660156 -2.8125 2.359375 -2.90625 C 2.054688 -3.007812 1.773438 -3.117188 1.515625 -3.234375 C 1.253906 -3.347656 1.035156 -3.53125 0.859375 -3.78125 C 0.691406 -4.03125 0.609375 -4.332031 0.609375 -4.6875 C 0.609375 -5.238281 0.820312 -5.675781 1.25 -6 C 1.6875 -6.320312 2.257812 -6.484375 2.96875 -6.484375 Z M 2.96875 -6.484375 "/></g></g></g><g fill="#1e1e1e" fill-opacity="1"><g transform="translate(136.225971, 202.783676)"><g><path d="M 5.25 -5.46875 L 3.203125 -5.46875 L 3.203125 0 L 2.109375 0 L 2.109375 -5.46875 L 0.078125 -5.46875 L 0.078125 -6.4375 L 5.25 -6.4375 Z M 5.25 -5.46875 "/></g></g></g><g fill="#1e1e1e" fill-opacity="1"><g transform="translate(148.643744, 202.783676)"><g><path d="M 1.9375 0 L 0.84375 0 L 0.84375 -6.4375 L 1.9375 -6.4375 Z M 1.9375 0 "/></g></g></g><g fill="#1e1e1e" fill-opacity="1"><g transform="translate(158.51466, 202.783676)"><g><path d="M 3.703125 -6.46875 C 4.148438 -6.46875 4.585938 -6.378906 5.015625 -6.203125 C 5.453125 -6.023438 5.828125 -5.78125 6.140625 -5.46875 L 5.515625 -4.6875 C 5.273438 -4.9375 4.992188 -5.132812 4.671875 -5.28125 C 4.359375 -5.425781 4.039062 -5.5 3.71875 -5.5 C 3.070312 -5.5 2.523438 -5.28125 2.078125 -4.84375 C 1.640625 -4.40625 1.421875 -3.867188 1.421875 -3.234375 C 1.421875 -2.597656 1.640625 -2.0625 2.078125 -1.625 C 2.523438 -1.1875 3.070312 -0.96875 3.71875 -0.96875 C 4.382812 -0.96875 4.984375 -1.222656 5.515625 -1.734375 L 6.15625 -1.015625 C 5.820312 -0.691406 5.429688 -0.429688 4.984375 -0.234375 C 4.546875 -0.046875 4.101562 0.046875 3.65625 0.046875 C 2.71875 0.046875 1.925781 -0.265625 1.28125 -0.890625 C 0.632812 -1.523438 0.3125 -2.304688 0.3125 -3.234375 C 0.3125 -4.148438 0.632812 -4.914062 1.28125 -5.53125 C 1.9375 -6.15625 2.742188 -6.46875 3.703125 -6.46875 Z M 3.703125 -6.46875 "/></g></g></g><g fill="#1e1e1e" fill-opacity="1"><g transform="translate(172.01737, 202.783676)"><g/></g></g><g fill="#1e1e1e" fill-opacity="1"><g transform="translate(181.48373, 202.783676)"><g><path d="M 5.25 -3.171875 L 6.203125 -3.171875 L 6.203125 -0.796875 C 5.867188 -0.546875 5.476562 -0.34375 5.03125 -0.1875 C 4.582031 -0.03125 4.140625 0.046875 3.703125 0.046875 C 2.742188 0.046875 1.9375 -0.265625 1.28125 -0.890625 C 0.632812 -1.523438 0.3125 -2.300781 0.3125 -3.21875 C 0.3125 -4.144531 0.640625 -4.914062 1.296875 -5.53125 C 1.960938 -6.15625 2.785156 -6.46875 3.765625 -6.46875 C 4.210938 -6.46875 4.65625 -6.382812 5.09375 -6.21875 C 5.539062 -6.0625 5.921875 -5.84375 6.234375 -5.5625 L 5.625 -4.765625 C 5.09375 -5.253906 4.472656 -5.5 3.765625 -5.5 C 3.109375 -5.5 2.550781 -5.273438 2.09375 -4.828125 C 1.644531 -4.390625 1.421875 -3.851562 1.421875 -3.21875 C 1.421875 -2.570312 1.644531 -2.023438 2.09375 -1.578125 C 2.550781 -1.140625 3.109375 -0.921875 3.765625 -0.921875 C 4.265625 -0.921875 4.757812 -1.070312 5.25 -1.375 Z M 5.25 -3.171875 "/></g></g></g><g fill="#1e1e1e" fill-opacity="1"><g transform="translate(195.464548, 202.783676)"><g><path d="M 6.328125 -6.4375 L 6.328125 -2.671875 C 6.328125 -1.828125 6.078125 -1.160156 5.578125 -0.671875 C 5.078125 -0.191406 4.390625 0.046875 3.515625 0.046875 C 2.648438 0.046875 1.96875 -0.191406 1.46875 -0.671875 C 0.96875 -1.160156 0.71875 -1.828125 0.71875 -2.671875 L 0.71875 -6.4375 L 1.796875 -6.4375 L 1.796875 -2.671875 C 1.796875 -2.128906 1.953125 -1.703125 2.265625 -1.390625 C 2.578125 -1.078125 3 -0.921875 3.53125 -0.921875 C 4.0625 -0.921875 4.476562 -1.070312 4.78125 -1.375 C 5.082031 -1.6875 5.234375 -2.117188 5.234375 -2.671875 L 5.234375 -6.4375 Z M 6.328125 -6.4375 "/></g></g></g><g fill="#1e1e1e" fill-opacity="1"><g transform="translate(209.583284, 202.783676)"><g><path d="M 5.25 -5.46875 L 3.203125 -5.46875 L 3.203125 0 L 2.109375 0 L 2.109375 -5.46875 L 0.078125 -5.46875 L 0.078125 -6.4375 L 5.25 -6.4375 Z M 5.25 -5.46875 "/></g></g></g><g fill="#1e1e1e" fill-opacity="1"><g transform="translate(231.467417, 202.783676)"><g><path d="M 6.4375 0 L 5.34375 0 L 5.34375 -2.671875 L 1.9375 -2.671875 L 1.9375 0 L 0.84375 0 L 0.84375 -6.4375 L 1.9375 -6.4375 L 1.9375 -3.640625 L 5.34375 -3.640625 L 5.34375 -6.4375 L 6.4375 -6.4375 Z M 6.4375 0 "/></g></g></g><g fill="#1e1e1e" fill-opacity="1"><g transform="translate(245.834405, 202.783676)"><g><path d="M 5.453125 -5.46875 L 1.9375 -5.46875 L 1.9375 -3.734375 L 5.078125 -3.734375 L 5.078125 -2.75 L 1.9375 -2.75 L 1.9375 -0.96875 L 5.5625 -0.96875 L 5.5625 0 L 0.84375 0 L 0.84375 -6.4375 L 5.453125 -6.4375 Z M 5.453125 -5.46875 "/></g></g></g><g fill="#1e1e1e" fill-opacity="1"><g transform="translate(258.960152, 202.783676)"><g><path d="M 5 -1.453125 L 1.75 -1.453125 L 1.140625 0 L 0.015625 0 L 2.859375 -6.4375 L 3.96875 -6.4375 L 6.78125 0 L 5.625 0 Z M 4.59375 -2.421875 L 3.375 -5.28125 L 2.15625 -2.421875 Z M 4.59375 -2.421875 "/></g></g></g><g fill="#1e1e1e" fill-opacity="1"><g transform="translate(272.839844, 202.783676)"><g><path d="M 1.9375 -0.984375 L 4.71875 -0.984375 L 4.71875 0 L 0.84375 0 L 0.84375 -6.4375 L 1.9375 -6.4375 Z M 1.9375 -0.984375 "/></g></g></g><g fill="#1e1e1e" fill-opacity="1"><g transform="translate(284.843873, 202.783676)"><g><path d="M 5.25 -5.46875 L 3.203125 -5.46875 L 3.203125 0 L 2.109375 0 L 2.109375 -5.46875 L 0.078125 -5.46875 L 0.078125 -6.4375 L 5.25 -6.4375 Z M 5.25 -5.46875 "/></g></g></g><g fill="#1e1e1e" fill-opacity="1"><g transform="translate(297.261636, 202.783676)"><g><path d="M 6.4375 0 L 5.34375 0 L 5.34375 -2.671875 L 1.9375 -2.671875 L 1.9375 0 L 0.84375 0 L 0.84375 -6.4375 L 1.9375 -6.4375 L 1.9375 -3.640625 L 5.34375 -3.640625 L 5.34375 -6.4375 L 6.4375 -6.4375 Z M 6.4375 0 "/></g></g></g></svg>