<svg xmlns="http://www.w3.org/2000/svg" xmlns:xlink="http://www.w3.org/1999/xlink" width="500" zoomAndPan="magnify" viewBox="0 0 375 374.999991" height="500" preserveAspectRatio="xMidYMid meet" version="1.0"><defs><g/><clipPath id="41fe32ee11"><path d="M 108.816406 212.308594 L 266.316406 212.308594 L 266.316406 291.058594 L 108.816406 291.058594 Z M 108.816406 212.308594 " clip-rule="nonzero"/></clipPath><clipPath id="c4bba4791a"><path d="M 127 212.308594 L 248 212.308594 L 248 272 L 127 272 Z M 127 212.308594 " clip-rule="nonzero"/></clipPath><clipPath id="1657adf54e"><path d="M 137 212.308594 L 238 212.308594 L 238 262 L 137 262 Z M 137 212.308594 " clip-rule="nonzero"/></clipPath><clipPath id="cb1bca6c73"><path d="M 148 212.308594 L 227 212.308594 L 227 252 L 148 252 Z M 148 212.308594 " clip-rule="nonzero"/></clipPath><clipPath id="09d56fe38d"><path d="M 117 212.308594 L 258 212.308594 L 258 283 L 117 283 Z M 117 212.308594 " clip-rule="nonzero"/></clipPath><clipPath id="c581c9d328"><path d="M 160.679688 185.21875 L 214.679688 185.21875 L 214.679688 239 L 160.679688 239 Z M 160.679688 185.21875 " clip-rule="nonzero"/></clipPath></defs><g clip-path="url(#41fe32ee11)"><path fill="#e5543c" d="M 108.675781 212.097656 C 108.675781 212.117188 108.675781 212.160156 108.675781 212.183594 C 108.675781 255.707031 143.96875 291.003906 187.496094 291.003906 C 231.019531 291.003906 266.316406 255.707031 266.316406 212.183594 C 266.316406 212.160156 266.316406 212.117188 266.316406 212.097656 Z M 108.675781 212.097656 " fill-opacity="1" fill-rule="nonzero"/></g><g clip-path="url(#c4bba4791a)"><path fill="#ea9f31" d="M 127.929688 212.097656 C 127.929688 212.117188 127.929688 212.160156 127.929688 212.183594 C 127.929688 245.085938 154.589844 271.746094 187.496094 271.746094 C 220.398438 271.746094 247.058594 245.085938 247.058594 212.183594 C 247.058594 212.160156 247.058594 212.117188 247.058594 212.097656 Z M 127.929688 212.097656 " fill-opacity="1" fill-rule="nonzero"/></g><g clip-path="url(#1657adf54e)"><path fill="#f0b69e" d="M 137.980469 212.097656 C 137.980469 212.117188 137.980469 212.160156 137.980469 212.183594 C 137.980469 239.519531 160.15625 261.695312 187.496094 261.695312 C 214.832031 261.695312 237.007812 239.519531 237.007812 212.183594 C 237.007812 212.160156 237.007812 212.117188 237.007812 212.097656 Z M 137.980469 212.097656 " fill-opacity="1" fill-rule="nonzero"/></g><g clip-path="url(#cb1bca6c73)"><path fill="#bfae5a" d="M 148.136719 212.097656 C 148.136719 212.117188 148.136719 212.160156 148.136719 212.183594 C 148.136719 233.914062 165.761719 251.539062 187.496094 251.539062 C 209.226562 251.539062 226.851562 233.914062 226.851562 212.183594 C 226.851562 212.160156 226.851562 212.117188 226.851562 212.097656 Z M 148.136719 212.097656 " fill-opacity="1" fill-rule="nonzero"/></g><g clip-path="url(#09d56fe38d)"><path fill="#fff6e4" d="M 159.753906 212.183594 C 159.753906 212.160156 159.753906 212.117188 159.753906 212.097656 L 215.234375 212.097656 C 215.234375 212.117188 215.234375 212.160156 215.234375 212.183594 C 215.234375 227.503906 202.8125 239.921875 187.496094 239.921875 C 172.175781 239.921875 159.753906 227.503906 159.753906 212.183594 Z M 187.496094 282.007812 C 226.070312 282.007812 257.320312 250.757812 257.320312 212.183594 C 257.320312 212.160156 257.320312 212.117188 257.320312 212.097656 L 247.058594 212.097656 C 247.058594 212.117188 247.058594 212.160156 247.058594 212.183594 C 247.058594 245.085938 220.398438 271.746094 187.496094 271.746094 C 154.589844 271.746094 127.929688 245.085938 127.929688 212.183594 C 127.929688 212.160156 127.929688 212.117188 127.929688 212.097656 L 117.667969 212.097656 C 117.667969 212.117188 117.667969 212.160156 117.667969 212.183594 C 117.667969 250.757812 148.921875 282.007812 187.496094 282.007812 Z M 187.496094 282.007812 " fill-opacity="1" fill-rule="nonzero"/></g><g clip-path="url(#c581c9d328)"><path fill="#ea9f31" d="M 214.3125 212.035156 C 194.199219 215.738281 191.199219 218.738281 187.496094 238.851562 C 183.792969 218.738281 180.789062 215.738281 160.679688 212.035156 C 180.789062 208.332031 183.792969 205.332031 187.496094 185.21875 C 191.199219 205.332031 194.199219 208.332031 214.3125 212.035156 Z M 214.3125 212.035156 " fill-opacity="1" fill-rule="nonzero"/></g><g fill="#e5543c" fill-opacity="1"><g transform="translate(124.881983, 147.540401)"><g><path d="M 12.835938 0 C 11.976562 -3.976562 11.074219 -10.292969 11.03125 -16.035156 L 15.050781 -16.035156 C 18.496094 -10.089844 19.808594 -3.773438 19.480469 0 L 33.917969 0 C 30.597656 -3.199219 25.878906 -10.828125 22.761719 -16.855469 C 37.816406 -20.589844 35.96875 -36.460938 15.871094 -36.503906 L 1.269531 -36.503906 C 3.730469 -25.304688 3.730469 -11.195312 1.230469 0 Z M 10.992188 -17.511719 C 10.992188 -26.125 12.222656 -35.109375 17.347656 -35.109375 C 21.039062 -35.109375 22.886719 -31.375 23.542969 -28.257812 C 24.773438 -22.1875 21.574219 -17.511719 14.929688 -17.511719 Z M 10.992188 -17.511719 "/></g></g><g transform="translate(158.555809, 147.540401)"><g><path d="M 12.835938 0.820312 C 20.628906 0.820312 24.9375 -5.085938 24.9375 -12.714844 C 24.9375 -20.34375 20.628906 -26.207031 12.835938 -26.207031 C 5.042969 -26.207031 0.820312 -20.34375 0.820312 -12.714844 C 0.820312 -5.085938 5.042969 0.820312 12.835938 0.820312 Z M 14.929688 -24.648438 C 20.179688 -25.265625 17.0625 -1.394531 11.03125 -0.695312 C 4.921875 0.0390625 8.53125 -23.910156 14.929688 -24.648438 Z M 14.929688 -24.648438 "/></g></g><g transform="translate(184.31362, 147.540401)"><g><path d="M 1.148438 -25.46875 C 3.566406 -15.421875 3.566406 -10.046875 1.148438 0 L 11.933594 0 C 10.171875 -14.683594 14.3125 -23.132812 16.609375 -23.132812 C 17.265625 -23.132812 17.757812 -22.476562 17.964844 -21.164062 C 18.785156 -15.707031 13.945312 -5.824219 15.707031 0 L 24.9375 0 C 23.171875 -14.722656 27.316406 -23.132812 29.613281 -23.132812 C 30.269531 -23.132812 30.761719 -22.476562 30.964844 -21.164062 C 31.828125 -15.707031 26.988281 -5.824219 28.710938 0 L 39.539062 0 C 33.753906 -10.828125 39.621094 -16.773438 37.445312 -22.804688 C 36.625 -25.101562 34.945312 -26.289062 33.058594 -26.289062 C 30.1875 -26.289062 26.824219 -23.707031 24.894531 -18.292969 C 25.019531 -19.851562 24.9375 -21.328125 24.402344 -22.804688 C 23.582031 -25.101562 21.902344 -26.289062 19.972656 -26.289062 C 15.789062 -26.289062 10.375 -20.589844 10.335938 -8.40625 C 9.71875 -13.902344 10.253906 -18.578125 11.933594 -25.46875 Z M 1.148438 -25.46875 "/></g></g><g transform="translate(224.549945, 147.540401)"><g><path d="M 8.324219 11.03125 C 14.640625 10.703125 19.152344 7.914062 21.082031 1.761719 C 23.707031 -6.726562 21.082031 -19.769531 25.921875 -25.46875 L 15.132812 -25.46875 C 16.570312 -23.335938 17.554688 -19.605469 17.800781 -15.175781 C 18.332031 -6.152344 14.394531 -2.007812 11.730469 -2.007812 C 10.539062 -2.007812 9.597656 -2.789062 9.351562 -4.304688 C 8.53125 -9.761719 12.015625 -19.644531 10.253906 -25.46875 L -0.53125 -25.46875 C 3.609375 -17.71875 2.5 -12.46875 2.296875 -7.875 C 1.96875 -1.84375 5.535156 1.023438 9.390625 0.820312 C 13.328125 0.613281 17.59375 -2.746094 18.496094 -9.0625 C 19.769531 -6.191406 20.835938 -1.515625 19.769531 1.925781 C 19.152344 4.058594 17.0625 5.617188 14.929688 5.617188 C 14.148438 5.617188 13.371094 5.414062 12.632812 4.960938 C 11.851562 4.46875 11.277344 3.445312 11.441406 1.722656 C 0.53125 2.664062 -0.738281 11.523438 8.324219 11.03125 Z M 8.324219 11.03125 "/></g></g></g><g fill="#e5543c" fill-opacity="1"><g transform="translate(102.956203, 187.290398)"><g><path d="M 1.230469 0 L 12.835938 0 C 11.648438 -5.414062 11.03125 -11.523438 10.992188 -17.675781 L 25.058594 -17.675781 C 25.019531 -11.523438 24.402344 -5.414062 23.171875 0 L 34.78125 0 C 32.320312 -11.195312 32.320312 -25.304688 34.78125 -36.503906 L 23.171875 -36.503906 C 24.363281 -31.089844 25.019531 -25.019531 25.058594 -18.90625 L 10.992188 -18.90625 C 11.03125 -25.019531 11.648438 -31.089844 12.835938 -36.503906 L 1.230469 -36.503906 C 3.730469 -25.304688 3.730469 -11.195312 1.230469 0 Z M 1.230469 0 "/></g></g><g transform="translate(138.96792, 187.290398)"><g><path d="M 2.378906 -2.664062 C 3.15625 -0.492188 5.289062 0.820312 7.585938 0.820312 C 11.238281 0.820312 15.996094 -0.203125 17.800781 -7.136719 C 17.472656 -4.960938 17.019531 -2.625 16.363281 0 L 27.152344 0 C 24.691406 -10.046875 24.691406 -15.421875 27.152344 -25.46875 L 16.363281 -25.46875 C 19.277344 -7.832031 14.722656 -1.476562 11.523438 -1.476562 C 10.210938 -1.476562 9.105469 -2.542969 8.859375 -4.304688 C 7.996094 -9.761719 12.878906 -19.644531 11.113281 -25.46875 L 0.328125 -25.46875 C 6.109375 -14.640625 0.203125 -8.695312 2.378906 -2.664062 Z M 2.378906 -2.664062 "/></g></g><g transform="translate(167.227683, 187.290398)"><g><path d="M 5.824219 -8.777344 C 0.121094 -7.75 -1.3125 -3.691406 0.328125 -1.3125 C 1.515625 0.492188 3.609375 0.902344 5.414062 0.902344 C 6.929688 0.902344 8.242188 0.613281 8.695312 0.53125 C 9.554688 0.410156 10.375 0.328125 11.238281 0.328125 C 13.410156 0.328125 15.625 0.859375 18.003906 2.296875 C 20.136719 3.566406 20.957031 5.289062 20.835938 6.847656 C 20.671875 8.859375 18.949219 10.582031 16.40625 10.582031 C 12.878906 10.582031 14.230469 5.699219 16.855469 5.125 C 16.28125 3.28125 13.289062 2.007812 10.539062 2.007812 C 8.980469 2.007812 7.503906 2.417969 6.5625 3.320312 C 3.117188 6.683594 6.191406 11.851562 14.394531 11.851562 C 21.203125 11.851562 25.757812 7.21875 26.207031 2.707031 C 26.535156 -0.941406 24.199219 -4.511719 18.128906 -5.617188 C 16.816406 -5.863281 15.503906 -5.988281 14.066406 -5.988281 C 11.648438 -5.988281 8.859375 -5.617188 5.085938 -4.632812 C 4.265625 -4.429688 3.609375 -4.347656 3.117188 -4.347656 C 0.820312 -4.347656 1.84375 -6.234375 4.101562 -7.054688 C 5.742188 -7.667969 7.421875 -7.75 8.652344 -7.710938 C 9.925781 -7.421875 11.320312 -7.257812 12.835938 -7.257812 C 29.570312 -7.175781 30.515625 -26.496094 13.738281 -26.453125 C 10.992188 -28.503906 13.125 -30.882812 15.132812 -29.40625 C 15.75 -28.996094 16.160156 -28.136719 15.953125 -26.699219 C 24.976562 -26.863281 26.496094 -34.042969 19.03125 -34.207031 C 15.339844 -34.246094 12.796875 -32.359375 11.566406 -29.695312 C 11.03125 -28.546875 11.195312 -27.234375 11.933594 -26.414062 C -0.328125 -25.304688 -2.625 -13.082031 5.824219 -8.777344 Z M 14.886719 -25.222656 C 18.578125 -24.363281 15.914062 -8.078125 11.402344 -8.570312 C 6.808594 -9.0625 10.171875 -26.332031 14.886719 -25.222656 Z M 14.886719 -25.222656 "/></g></g><g transform="translate(194.174947, 187.290398)"><g><path d="M 0.820312 -11.894531 C 0.820312 -5.167969 5.578125 0.820312 13.535156 0.820312 C 17.101562 0.820312 20.546875 -1.023438 22.394531 -4.140625 C 24.15625 -7.21875 22.761719 -10.007812 19.726562 -10.007812 C 18.210938 -10.007812 16.324219 -9.308594 14.191406 -7.628906 C 16.488281 -5.945312 18.128906 -0.695312 15.175781 -0.53125 C 11.074219 -0.285156 8.777344 -4.960938 8.53125 -9.472656 C 13.65625 -9.472656 23.828125 -13.164062 23.5 -19.933594 C 23.296875 -24.609375 18.375 -26.289062 14.394531 -26.289062 C 6.480469 -26.289062 0.820312 -19.972656 0.820312 -11.894531 Z M 9.226562 -17.472656 C 10.5 -22.230469 13.164062 -25.101562 14.96875 -25.101562 C 16.40625 -25.101562 17.265625 -23.253906 16.363281 -19.03125 C 15.542969 -15.175781 12.46875 -10.867188 8.488281 -10.664062 C 8.488281 -13.328125 8.816406 -15.914062 9.226562 -17.472656 Z M 9.226562 -17.472656 "/></g></g><g transform="translate(218.41518, 187.290398)"><g><path d="M 1.148438 -25.46875 C 3.566406 -15.421875 3.566406 -10.046875 1.148438 0 L 11.933594 0 C 9.515625 -14.929688 14.847656 -23.171875 17.757812 -23.171875 C 18.578125 -23.171875 19.234375 -22.515625 19.441406 -21.164062 C 20.261719 -15.707031 15.421875 -5.824219 17.183594 0 L 27.972656 0 C 22.1875 -10.828125 28.054688 -16.773438 25.921875 -22.804688 C 25.101562 -25.101562 23.253906 -26.289062 21.082031 -26.289062 C 16.527344 -26.289062 10.664062 -21.039062 10.171875 -9.84375 C 9.800781 -14.765625 10.375 -19.195312 11.933594 -25.46875 Z M 1.148438 -25.46875 "/></g></g><g transform="translate(247.126116, 187.290398)"><g><path d="M 1.515625 -4.140625 C 3.484375 -0.777344 8.160156 0.820312 12.671875 0.820312 C 15.175781 0.820312 17.59375 0.328125 19.480469 -0.613281 C 22.148438 -1.96875 24.15625 -4.46875 24.15625 -7.546875 C 24.15625 -14.4375 16.363281 -15.75 11.484375 -17.800781 C 6.152344 -20.015625 10.992188 -25.101562 12.835938 -25.101562 C 15.832031 -25.058594 16.242188 -23.171875 15.09375 -22.230469 C 12.425781 -19.972656 14.3125 -17.0625 18.046875 -17.472656 C 21.574219 -17.882812 23.253906 -20.136719 22.925781 -22.230469 C 22.515625 -24.976562 18.539062 -26.371094 14.191406 -26.371094 C 11.894531 -26.371094 9.472656 -25.960938 7.421875 -25.183594 C 0.164062 -22.351562 0.695312 -15.339844 7.054688 -11.8125 C 9.433594 -10.5 12.179688 -9.472656 14.066406 -8.160156 C 18.578125 -5.042969 15.789062 -0.492188 12.386719 -0.492188 C 11.484375 -0.492188 10.582031 -0.820312 9.71875 -1.515625 C 7.628906 -3.199219 7.421875 -5.945312 9.71875 -7.628906 C 7.585938 -9.308594 5.699219 -10.007812 4.183594 -10.007812 C 1.148438 -10.007812 -0.246094 -7.21875 1.515625 -4.140625 Z M 1.515625 -4.140625 "/></g></g></g></svg>