<svg xmlns="http://www.w3.org/2000/svg" xmlns:xlink="http://www.w3.org/1999/xlink" width="500" zoomAndPan="magnify" viewBox="0 0 375 374.999991" height="500" preserveAspectRatio="xMidYMid meet" version="1.0"><defs><g/></defs><g fill="#292929" fill-opacity="1"><g transform="translate(99.91406, 219.170258)"><g><path d="M 1.558594 -0.3125 L 1.558594 0 L 13.257812 0 L 13.257812 -0.3125 C 10.140625 -3.433594 10.527344 -7.957031 10.527344 -16.144531 L 10.527344 -67.386719 C 10.527344 -75.105469 12.558594 -76.433594 18.71875 -76.433594 C 23.632812 -76.433594 28 -74.792969 28 -69.492188 C 28 -58.261719 11.308594 -56.386719 11.308594 -47.496094 C 11.308594 -44.769531 13.179688 -42.195312 15.988281 -42.195312 C 19.730469 -42.195312 20.824219 -44.535156 24.566406 -44.535156 C 27.921875 -44.535156 29.871094 -41.570312 29.871094 -37.980469 C 29.871094 -32.445312 23.554688 -25.269531 23.554688 -14.898438 C 23.554688 -9.59375 25.269531 -2.105469 32.054688 1.558594 L 36.421875 -4.445312 C 31.820312 -6.472656 29.871094 -10.449219 29.871094 -14.039062 C 29.871094 -22.382812 33.769531 -27.296875 33.769531 -35.097656 C 33.769531 -38.214844 32.054688 -46.328125 24.722656 -46.328125 C 20.433594 -46.328125 19.5 -43.910156 16.691406 -43.910156 C 14.507812 -43.910156 13.101562 -45.78125 13.101562 -47.730469 C 13.101562 -56.933594 34.628906 -56 34.628906 -69.882812 C 34.628906 -72.6875 33.226562 -77.992188 24.253906 -77.992188 L 1.558594 -77.992188 L 1.558594 -77.679688 C 4.679688 -74.5625 4.289062 -70.039062 4.289062 -61.847656 L 4.289062 -16.144531 C 4.289062 -7.957031 4.679688 -3.433594 1.558594 -0.3125 Z M 1.558594 -0.3125 "/></g></g></g><g fill="#292929" fill-opacity="1"><g transform="translate(137.894344, 219.170258)"><g><path d="M 7.332031 -38.996094 C 7.332031 -30.027344 1.558594 -24.488281 1.558594 -14.820312 C 1.558594 -5.148438 10.0625 1.558594 19.964844 1.558594 C 29.871094 1.558594 38.371094 -5.148438 38.371094 -14.820312 C 38.371094 -24.488281 32.601562 -30.027344 32.601562 -38.996094 C 32.601562 -47.964844 38.371094 -53.503906 38.371094 -63.175781 C 38.371094 -72.84375 29.871094 -79.550781 19.964844 -79.550781 C 10.0625 -79.550781 1.558594 -72.84375 1.558594 -63.175781 C 1.558594 -53.503906 7.332031 -47.964844 7.332031 -38.996094 Z M 19.964844 -77.757812 C 27.296875 -77.757812 32.054688 -69.101562 32.054688 -59.976562 C 32.054688 -53.269531 30.496094 -45.9375 30.496094 -38.996094 C 30.496094 -32.054688 32.054688 -24.722656 32.054688 -18.015625 C 32.054688 -8.890625 27.296875 -0.234375 19.964844 -0.234375 C 12.636719 -0.234375 7.878906 -8.890625 7.878906 -18.015625 C 7.878906 -24.722656 9.4375 -32.054688 9.4375 -38.996094 C 9.4375 -45.9375 7.878906 -53.269531 7.878906 -59.976562 C 7.878906 -69.101562 12.636719 -77.757812 19.964844 -77.757812 Z M 19.964844 -77.757812 "/></g></g></g><g fill="#292929" fill-opacity="1"><g transform="translate(177.824334, 219.170258)"><g><path d="M 1.558594 -77.992188 L 1.558594 -77.679688 C 4.679688 -74.5625 4.289062 -70.039062 4.289062 -61.847656 L 4.289062 -16.144531 C 4.289062 -7.957031 4.679688 -3.433594 1.558594 -0.3125 L 1.558594 0 L 13.257812 0 L 13.257812 -0.3125 C 10.140625 -3.433594 10.527344 -7.957031 10.527344 -16.144531 L 10.527344 -60.835938 C 10.527344 -65.746094 9.125 -72.765625 5.070312 -76.277344 C 6.550781 -75.496094 9.046875 -75.105469 10.761719 -75.105469 C 14.117188 -75.105469 16.769531 -75.808594 20.589844 -75.808594 C 27.921875 -75.808594 32.445312 -64.8125 32.445312 -56.078125 C 32.445312 -46.25 23.554688 -34.863281 23.554688 -19.652344 C 23.554688 -12.324219 25.816406 -5.070312 28.625 0 L 35.71875 0 C 31.117188 -9.75 28.46875 -17.78125 28.46875 -29.714844 C 28.46875 -45.234375 37.046875 -50.617188 37.046875 -62.316406 C 37.046875 -67.152344 35.097656 -71.832031 32.054688 -75.105469 C 32.289062 -75.105469 32.523438 -75.105469 32.679688 -75.105469 C 36.03125 -75.105469 38.683594 -75.808594 42.507812 -75.808594 C 49.835938 -75.808594 54.359375 -64.8125 54.359375 -56.078125 C 54.359375 -46.25 45.46875 -34.863281 45.46875 -19.652344 C 45.46875 -12.324219 47.730469 -5.070312 50.539062 0 L 57.636719 0 C 53.035156 -9.75 50.382812 -17.78125 50.382812 -29.714844 C 50.382812 -45.234375 58.960938 -50.617188 58.960938 -62.316406 C 58.960938 -71.050781 52.566406 -79.550781 44.613281 -79.550781 C 39.386719 -79.550781 36.578125 -77.445312 31.351562 -77.054688 C 30.964844 -77.054688 30.417969 -77.054688 29.871094 -77.054688 C 27.765625 -78.617188 25.347656 -79.550781 22.695312 -79.550781 C 17.46875 -79.550781 14.664062 -77.445312 9.4375 -77.054688 C 7.410156 -76.902344 3.585938 -77.601562 1.558594 -77.992188 Z M 1.558594 -77.992188 "/></g></g></g><g fill="#292929" fill-opacity="1"><g transform="translate(238.343228, 219.170258)"><g><path d="M 0 -75.964844 L 0 -75.652344 C 10.761719 -75.652344 6.082031 -41.101562 18.171875 -36.421875 C 13.101562 -27.53125 9.75 -21.683594 9.75 -13.570312 C 9.75 -7.175781 12.636719 -1.402344 17.703125 1.558594 L 22.304688 -3.355469 C 18.328125 -6.550781 14.898438 -10.371094 14.898438 -16.691406 C 14.898438 -38.527344 35.175781 -53.816406 35.175781 -71.363281 C 35.175781 -75.183594 34.472656 -76.902344 33.304688 -77.992188 L 26.207031 -77.992188 C 28.703125 -73.390625 29.011719 -70.269531 29.011719 -65.515625 C 29.011719 -54.828125 21.292969 -41.414062 21.292969 -41.414062 C 12.402344 -45.78125 16.378906 -75.964844 4.992188 -79.550781 Z M 0 -75.964844 "/></g></g></g></svg>