<svg xmlns="http://www.w3.org/2000/svg" xmlns:xlink="http://www.w3.org/1999/xlink" width="500" zoomAndPan="magnify" viewBox="0 0 375 374.999991" height="500" preserveAspectRatio="xMidYMid meet" version="1.0"><defs><g/></defs><g fill="#354ed6" fill-opacity="1"><g transform="translate(127.246166, 197.187409)"><g><path d="M 1.429688 0 L 10.730469 0 L 10.730469 -8.347656 C 10.730469 -25.609375 3.625 -32.957031 3.625 -38.820312 C 3.625 -39.679688 4.007812 -40.300781 4.625 -40.300781 C 5.675781 -40.300781 6.390625 -38.632812 8.726562 -38.632812 C 13.640625 -38.632812 15.832031 -45.449219 20.652344 -45.449219 C 22.175781 -45.449219 22.890625 -44.542969 22.890625 -43.6875 C 22.890625 -39.296875 11.445312 -32.71875 11.445312 -24.277344 C 11.445312 -18.933594 17.980469 -19.695312 17.980469 -7.582031 C 17.980469 -1.90625 17.167969 0 17.167969 0 L 26.660156 0 C 26.660156 0 27.421875 -4.339844 27.421875 -7.25 C 27.421875 -20.269531 13.640625 -18.886719 13.640625 -22.941406 C 13.640625 -26.566406 27.328125 -25.847656 27.328125 -39.109375 C 27.328125 -43.6875 24.417969 -47.691406 17.980469 -47.691406 L 1.429688 -47.691406 Z M 1.429688 0 "/></g></g></g><g fill="#354ed6" fill-opacity="1"><g transform="translate(155.14107, 197.187409)"><g><path d="M 14.976562 0.953125 C 23.65625 0.953125 28.996094 -6.914062 28.996094 -23.847656 C 28.996094 -40.777344 23.65625 -48.644531 14.976562 -48.644531 C 6.296875 -48.644531 0.953125 -40.777344 0.953125 -23.847656 C 0.953125 -6.914062 6.296875 0.953125 14.976562 0.953125 Z M 7.628906 -7.441406 C 7.628906 -11.113281 11.066406 -12.878906 11.066406 -18.695312 C 11.066406 -27.183594 8.296875 -28.902344 8.296875 -37.484375 C 8.296875 -41.539062 11.015625 -45.976562 16.261719 -45.976562 C 20.507812 -45.976562 22.796875 -42.875 22.796875 -39.964844 C 22.796875 -36.292969 19.363281 -34.53125 19.363281 -28.710938 C 19.363281 -20.222656 22.128906 -18.503906 22.128906 -9.921875 C 22.128906 -5.867188 19.410156 -1.429688 14.117188 -1.429688 C 9.921875 -1.429688 7.628906 -4.53125 7.628906 -7.441406 Z M 7.628906 -7.441406 "/></g></g></g><g fill="#354ed6" fill-opacity="1"><g transform="translate(185.086365, 197.187409)"><g><path d="M 1.429688 0 L 10.683594 0 L 10.683594 -19.554688 C 10.683594 -30.332031 3.289062 -36.292969 3.289062 -44.257812 C 5.4375 -40.347656 8.535156 -38.203125 12.449219 -38.203125 C 17.882812 -38.203125 19.601562 -44.785156 22.464844 -44.785156 C 23.511719 -44.785156 23.894531 -43.542969 23.894531 -42.492188 C 23.894531 -37.105469 18.027344 -35.292969 18.027344 -27.28125 L 18.027344 0 L 27.328125 0 L 27.328125 -34.339844 C 27.328125 -35.769531 27.230469 -37.152344 27.089844 -38.390625 C 27.757812 -38.25 28.425781 -38.203125 29.09375 -38.203125 C 34.53125 -38.203125 36.246094 -44.785156 39.109375 -44.785156 C 40.15625 -44.785156 40.539062 -43.542969 40.539062 -42.492188 C 40.539062 -37.105469 34.671875 -35.292969 34.671875 -27.28125 L 34.671875 0 L 43.972656 0 L 43.972656 -34.339844 C 43.972656 -43.019531 41.347656 -48.644531 35.054688 -48.644531 C 30.761719 -48.644531 29.332031 -45.785156 24.5625 -45.785156 L 24.5625 -45.738281 C 23.132812 -47.597656 21.128906 -48.644531 18.410156 -48.644531 C 14.117188 -48.644531 12.6875 -45.785156 7.917969 -45.785156 C 5.199219 -45.785156 3.433594 -46.453125 1.429688 -47.691406 Z M 1.429688 0 "/></g></g></g><g fill="#354ed6" fill-opacity="1"><g transform="translate(230.481148, 197.187409)"><g><path d="M 1.429688 -23.847656 C 1.429688 -7.296875 22.890625 -14.546875 22.890625 -7.441406 C 22.890625 -5.101562 20.890625 -3.195312 18.550781 -3.195312 C 13.449219 -3.195312 10.253906 -11.828125 4.433594 -11.828125 C 3.339844 -11.828125 2.097656 -11.542969 1.621094 -11.015625 L 1.621094 -2.097656 C 3.863281 -0.332031 7.25 0.953125 10.921875 0.953125 C 18.648438 0.953125 26.613281 -1.382812 26.613281 -12.398438 L 26.613281 -47.691406 L 18.457031 -47.691406 C 17.597656 -46.40625 17.074219 -44.257812 17.074219 -42.015625 C 17.074219 -32.335938 24.464844 -22.75 24.464844 -16.835938 C 24.464844 -15.832031 24.277344 -14.976562 23.417969 -14.976562 C 21.9375 -14.976562 21.320312 -19.03125 16.453125 -19.03125 C 12.542969 -19.03125 11.304688 -18.125 7.871094 -18.125 C 5.820312 -18.125 3.910156 -19.648438 3.910156 -21.9375 C 3.910156 -28.664062 11.066406 -34.242188 11.066406 -43.496094 C 11.066406 -45.5 10.445312 -46.835938 9.730469 -47.691406 L 1.429688 -47.691406 Z M 1.429688 -23.847656 "/></g></g></g><g fill="#ff6565" fill-opacity="1"><g transform="translate(152.922386, 227.093774)"><g><path d="M 19.078125 -9.0625 C 18.171875 -7.441406 17.121094 -5.914062 15.929688 -4.578125 C 14.929688 -3.480469 13.78125 -2.242188 12.351562 -1.859375 C 11.445312 -1.574219 10.445312 -1.859375 10.253906 -2.863281 C 10.015625 -4.484375 11.015625 -6.296875 11.730469 -7.679688 C 12.636719 -9.492188 13.496094 -11.398438 14.023438 -13.355469 C 14.449219 -14.976562 14.738281 -16.835938 13.972656 -18.457031 C 13.402344 -19.746094 12.019531 -20.554688 10.585938 -20.554688 C 9.203125 -20.601562 7.917969 -19.886719 6.820312 -19.078125 C 6.675781 -18.980469 6.484375 -18.839844 6.34375 -18.695312 C 7.34375 -20.9375 8.347656 -23.179688 9.300781 -25.421875 C 10.445312 -27.996094 11.589844 -30.523438 12.78125 -33.050781 C 13.355469 -34.339844 11.445312 -35.484375 10.875 -34.195312 C 6.34375 -24.464844 2.144531 -14.640625 -2.097656 -4.816406 C -2.625 -3.625 -3.148438 -2.382812 -3.671875 -1.191406 C -3.910156 -0.621094 -3.816406 0 -3.242188 0.332031 C -2.8125 0.621094 -2.003906 0.476562 -1.765625 -0.046875 C -0.382812 -3.242188 1 -6.390625 2.335938 -9.539062 C 2.382812 -9.539062 2.382812 -9.585938 2.382812 -9.632812 C 3.671875 -12.398438 5.484375 -15.117188 7.820312 -17.074219 C 8.632812 -17.742188 9.777344 -18.503906 10.875 -18.363281 C 12.210938 -18.125 12.304688 -16.550781 12.160156 -15.40625 C 11.972656 -13.640625 11.304688 -11.921875 10.539062 -10.347656 C 9.679688 -8.441406 8.585938 -6.582031 8.203125 -4.53125 C 7.917969 -3.148438 8.011719 -1.621094 9.0625 -0.574219 C 10.0625 0.476562 11.636719 0.714844 13.019531 0.285156 C 14.6875 -0.285156 16.121094 -1.527344 17.3125 -2.8125 C 18.742188 -4.386719 19.933594 -6.105469 20.9375 -7.964844 C 21.652344 -9.203125 19.746094 -10.300781 19.078125 -9.0625 Z M 19.078125 -9.0625 "/></g></g></g><g fill="#ff6565" fill-opacity="1"><g transform="translate(172.138869, 227.093774)"><g><path d="M 19.839844 -9.0625 C 18.886719 -7.296875 17.882812 -5.578125 16.597656 -4.101562 C 15.691406 -3.101562 14.164062 -1.527344 12.636719 -2.003906 C 10.96875 -2.574219 11.542969 -4.769531 11.875 -6.058594 C 12.160156 -7.011719 12.496094 -7.917969 12.878906 -8.871094 C 13.117188 -9.441406 14.210938 -12.019531 14.5 -12.6875 C 15.546875 -15.167969 16.691406 -17.695312 17.789062 -20.175781 C 18.074219 -20.746094 17.980469 -21.367188 17.40625 -21.699219 C 16.929688 -21.984375 16.121094 -21.84375 15.882812 -21.320312 C 14.738281 -18.742188 13.59375 -16.167969 12.496094 -13.59375 C 11.875 -12.160156 11.207031 -10.777344 10.636719 -9.300781 C 9.679688 -7.203125 8.488281 -5.101562 6.867188 -3.480469 C 5.578125 -2.195312 3.195312 -1.050781 1.8125 -2.910156 C 0.761719 -4.386719 1.429688 -6.726562 2.003906 -8.25 C 2.574219 -9.871094 3.433594 -11.636719 4.195312 -13.355469 C 5.199219 -15.644531 6.246094 -17.882812 7.296875 -20.175781 C 7.535156 -20.746094 7.441406 -21.367188 6.867188 -21.699219 C 6.4375 -21.984375 5.628906 -21.84375 5.390625 -21.320312 C 4.339844 -19.03125 3.289062 -16.738281 2.289062 -14.449219 C 1.382812 -12.449219 0.332031 -10.398438 -0.332031 -8.296875 C -1.097656 -6.058594 -1.382812 -3.148438 0.382812 -1.238281 C 2.289062 0.90625 5.390625 0.523438 7.441406 -1.050781 C 8.15625 -1.621094 8.824219 -2.242188 9.394531 -2.957031 C 9.585938 -1.8125 10.160156 -0.761719 11.351562 -0.144531 C 13.449219 0.859375 15.546875 -0.09375 17.167969 -1.527344 C 19.125 -3.289062 20.507812 -5.628906 21.746094 -7.917969 C 22.414062 -9.15625 20.507812 -10.300781 19.839844 -9.0625 Z M 19.839844 -9.0625 "/></g></g></g><g fill="#ff6565" fill-opacity="1"><g transform="translate(192.118295, 227.093774)"><g><path d="M 19.554688 -9.347656 C 17.933594 -6.484375 15.882812 -4.007812 13.117188 -2.195312 C 12.210938 -1.574219 11.207031 -1.050781 10.253906 -0.523438 C 10.445312 -1.097656 10.683594 -1.667969 10.921875 -2.242188 C 11.636719 -4.101562 12.398438 -6.007812 13.164062 -7.917969 C 13.257812 -8.109375 16.597656 -16.40625 18.265625 -20.175781 C 18.550781 -20.699219 18.457031 -21.367188 17.882812 -21.699219 C 17.40625 -21.9375 16.597656 -21.84375 16.359375 -21.269531 C 16.121094 -20.746094 15.882812 -20.175781 15.644531 -19.601562 C 15.5 -19.839844 15.355469 -20.078125 15.167969 -20.269531 C 14.117188 -21.460938 12.449219 -22.035156 10.875 -21.9375 C 7.058594 -21.605469 4.054688 -18.171875 2.335938 -15.023438 C 0.476562 -11.78125 -1.097656 -7.628906 -0.332031 -3.816406 C 0.285156 -0.953125 2.863281 0.667969 5.722656 -0.046875 C 6.582031 -0.238281 7.34375 -0.621094 8.058594 -1.097656 C 7.820312 -0.382812 7.535156 0.332031 7.25 1 C 6.914062 1.191406 6.535156 1.382812 6.199219 1.574219 C 3.433594 3.195312 0.574219 5.101562 -1.476562 7.628906 C -3.242188 9.777344 -4.769531 12.589844 -4.148438 15.453125 C -3.480469 18.3125 -0.332031 19.171875 1.859375 17.40625 C 3.769531 15.929688 4.816406 13.449219 5.675781 11.253906 C 6.820312 8.394531 7.917969 5.484375 9.015625 2.574219 C 10.875 1.621094 12.6875 0.761719 14.402344 -0.382812 C 17.40625 -2.382812 19.695312 -5.101562 21.460938 -8.203125 C 22.128906 -9.492188 20.222656 -10.585938 19.554688 -9.347656 Z M 6.058594 -2.527344 C 4.578125 -1.765625 2.71875 -1.90625 2.050781 -3.578125 C 1 -6.152344 2.144531 -9.539062 3.195312 -11.875 C 4.484375 -14.785156 6.390625 -17.742188 9.300781 -19.21875 C 10.398438 -19.746094 11.730469 -19.933594 12.828125 -19.316406 C 14.164062 -18.550781 14.308594 -17.167969 13.972656 -15.832031 C 13.878906 -15.40625 12.019531 -11.015625 11.066406 -8.632812 C 10.015625 -6.246094 8.441406 -3.769531 6.058594 -2.527344 Z M 4.578125 7.871094 C 3.863281 9.777344 3.195312 11.78125 2.144531 13.59375 C 1.667969 14.402344 1.097656 15.308594 0.285156 15.832031 C -0.191406 16.167969 -1.097656 16.40625 -1.667969 15.691406 C -2.382812 14.738281 -2.050781 13.164062 -1.667969 12.160156 C -1.289062 11.113281 -0.667969 10.160156 0 9.300781 C 1.574219 7.25 3.71875 5.722656 5.960938 4.339844 C 5.484375 5.484375 5.054688 6.675781 4.578125 7.871094 Z M 4.578125 7.871094 "/></g></g></g><g fill="#ff6565" fill-opacity="1"><g transform="translate(211.811619, 227.093774)"><g><path d="M 15.929688 -9.253906 C 14.210938 -6.058594 11.398438 -2.480469 7.535156 -1.859375 C 6.152344 -1.667969 4.53125 -1.957031 3.527344 -3.003906 C 2.433594 -4.054688 2.195312 -5.722656 2.242188 -7.152344 C 2.289062 -8.203125 2.433594 -9.203125 2.71875 -10.253906 C 7.25 -8.777344 12.542969 -11.207031 14.355469 -15.691406 C 15.167969 -17.742188 15.023438 -20.414062 12.828125 -21.558594 C 10.96875 -22.511719 8.726562 -22.082031 7.058594 -20.9375 C 5.246094 -19.648438 3.863281 -17.789062 2.765625 -15.832031 C 1.621094 -13.878906 0.714844 -11.730469 0.285156 -9.539062 C -0.09375 -7.390625 -0.144531 -5.054688 0.8125 -3.050781 C 1.667969 -1.191406 3.480469 0 5.484375 0.285156 C 11.015625 1.097656 15.5 -3.71875 17.835938 -8.15625 C 18.503906 -9.394531 16.597656 -10.539062 15.929688 -9.253906 Z M 6.246094 -17.121094 C 7.25 -18.3125 8.535156 -19.648438 10.109375 -19.839844 C 11.589844 -20.078125 12.78125 -19.269531 12.636719 -17.742188 C 12.449219 -15.832031 11.015625 -14.164062 9.492188 -13.210938 C 7.628906 -12.019531 5.484375 -11.730469 3.433594 -12.351562 C 4.148438 -14.117188 5.152344 -15.738281 6.246094 -17.121094 Z M 6.246094 -17.121094 "/></g></g></g><g fill="#ff6565" fill-opacity="1"><g transform="translate(227.880988, 227.093774)"><g><path d="M 19.507812 -9.0625 C 18.601562 -7.441406 17.597656 -5.914062 16.359375 -4.578125 C 15.40625 -3.480469 14.210938 -2.242188 12.78125 -1.859375 C 11.875 -1.574219 10.875 -1.859375 10.730469 -2.863281 C 10.492188 -4.484375 11.492188 -6.296875 12.160156 -7.679688 C 13.066406 -9.492188 13.925781 -11.351562 14.449219 -13.304688 C 14.878906 -14.976562 15.167969 -16.882812 14.402344 -18.503906 C 13.832031 -19.792969 12.449219 -20.554688 11.066406 -20.554688 C 9.679688 -20.601562 8.347656 -19.886719 7.296875 -19.078125 C 7.152344 -18.980469 7.058594 -18.886719 6.914062 -18.789062 C 7.105469 -19.269531 7.34375 -19.695312 7.535156 -20.125 C 8.109375 -21.414062 6.199219 -22.558594 5.628906 -21.269531 C 2.957031 -15.453125 0.429688 -9.585938 -2.097656 -3.769531 C -2.480469 -2.910156 -2.8125 -2.050781 -3.195312 -1.191406 C -3.433594 -0.621094 -3.339844 0 -2.8125 0.332031 C -2.335938 0.621094 -1.527344 0.476562 -1.289062 -0.046875 C 0.09375 -3.289062 1.476562 -6.535156 2.910156 -9.730469 C 4.148438 -12.449219 5.960938 -15.167969 8.25 -17.074219 C 9.109375 -17.742188 10.253906 -18.503906 11.351562 -18.363281 C 12.636719 -18.125 12.78125 -16.644531 12.636719 -15.5 C 12.449219 -13.6875 11.730469 -11.921875 11.015625 -10.300781 C 10.160156 -8.441406 9.015625 -6.582031 8.632812 -4.53125 C 8.394531 -3.148438 8.441406 -1.621094 9.492188 -0.574219 C 10.539062 0.476562 12.113281 0.714844 13.449219 0.285156 C 15.167969 -0.285156 16.597656 -1.527344 17.789062 -2.8125 C 19.171875 -4.386719 20.414062 -6.105469 21.414062 -7.964844 C 22.082031 -9.203125 20.175781 -10.300781 19.507812 -9.0625 Z M 19.507812 -9.0625 "/></g></g></g><g fill="#ff6565" fill-opacity="1"><g transform="translate(247.526624, 227.093774)"><g><path d="M 13.164062 -6.867188 C 12.972656 -9.679688 11.253906 -11.875 9.871094 -14.210938 C 9.253906 -15.214844 8.488281 -16.40625 8.679688 -17.644531 C 8.777344 -18.550781 9.585938 -19.886719 10.492188 -20.222656 C 11.730469 -20.792969 11.304688 -22.75 9.871094 -22.367188 C 8.488281 -21.984375 7.296875 -20.9375 6.34375 -19.886719 C 5.101562 -18.503906 4.054688 -16.929688 3.101562 -15.355469 C 1.289062 -12.351562 -0.191406 -9.109375 -2.195312 -6.152344 C -2.957031 -5.007812 -1.050781 -3.863281 -0.285156 -5.054688 C 1.621094 -7.820312 3.003906 -10.875 4.722656 -13.734375 C 5.292969 -14.6875 5.867188 -15.644531 6.484375 -16.550781 C 6.820312 -14.449219 8.25 -12.636719 9.300781 -10.921875 C 10.539062 -8.917969 11.398438 -6.964844 10.636719 -4.625 C 10.109375 -2.910156 8.679688 -1.335938 6.820312 -1.238281 C 4.914062 -1.144531 3.101562 -2.050781 3.003906 -4.101562 C 2.910156 -5.484375 0.667969 -5.53125 0.761719 -4.101562 C 0.90625 -2.003906 2.050781 -0.238281 4.007812 0.523438 C 6.246094 1.429688 8.824219 0.953125 10.636719 -0.574219 C 12.351562 -2.097656 13.257812 -4.578125 13.164062 -6.867188 Z M 13.164062 -6.867188 "/></g></g></g></svg>